<?xml version="1.0" encoding="UTF-8"?>
<svg id="_图层_1" data-name="图层 1" xmlns="http://www.w3.org/2000/svg" viewBox="0 0 2834.65 2834.65">
  <defs>
    <style>
      .cls-1 {
        fill: #00d471;
      }

      .cls-2 {
        fill: #ff7900;
      }

      .cls-3 {
        fill: #fff;
      }

      .cls-4 {
        fill: #ff9d00;
      }

      .cls-5 {
        fill: #ffb327;
      }

      .cls-6 {
        fill: #ffd39f;
      }

      .cls-7 {
        fill: #ffc500;
      }

      .cls-8 {
        fill: #00ee71;
      }

      .cls-9 {
        fill: #fff127;
      }

      .cls-10 {
        fill: #ffdf9f;
      }

      .cls-11 {
        fill: #00be71;
      }
    </style>
  </defs>
  <path class="cls-1" d="M1447.99,358c-9.56-1.68-18.66,4.7-20.34,14.25-2.29,13.02-4.8,26.12-7.45,38.94-2.53,12.24-5.34,24.85-8.33,37.47,0,0,0,0,0,.01-2.27,9.55-4.6,18.93-6.93,27.89-2.44,9.39,3.19,18.98,12.57,21.42,1.48.39,2.97.57,4.44.57,7.8,0,14.93-5.24,16.99-13.14,2.4-9.2,4.79-18.84,7.11-28.63,0,0,0,0,0-.01,3.08-12.96,5.95-25.9,8.55-38.47,2.72-13.16,5.3-26.61,7.65-39.97,1.68-9.55-4.7-18.66-14.25-20.34Z"/>
  <path class="cls-4" d="M1044.48,822.55c-7.73-5.86-18.75-4.35-24.61,3.38-14.74,19.43-30.2,38.53-45.96,56.77,0,0,0,0,0,0-37.18,43.02-77.96,83.62-121.22,120.69-7.37,6.31-8.22,17.4-1.91,24.77,3.47,4.06,8.39,6.14,13.35,6.14,4.04,0,8.11-1.39,11.42-4.23,44.59-38.2,86.62-80.06,124.94-124.4,0,0,0,0,0,0,16.25-18.8,32.19-38.49,47.38-58.51,5.86-7.73,4.35-18.75-3.38-24.61Z"/>
  <path class="cls-4" d="M1123.64,824.57c-7.95-5.57-18.9-3.64-24.46,4.31-6.79,9.69-13.69,19.25-20.52,28.43,0,0,0,0,0,0-6.31,8.48-12.64,16.75-18.8,24.6,0,0,0,0,0,0-28.34,36.08-59.15,71-91.6,103.78-6.82,6.9-6.77,18.02.13,24.84,3.42,3.39,7.89,5.08,12.36,5.08s9.05-1.74,12.48-5.21c33.38-33.73,65.09-69.66,94.26-106.79,0,0,0,0,0,0,6.34-8.08,12.85-16.59,19.35-25.31,0,0,0,0,0,0,7.03-9.44,14.14-19.28,21.12-29.25,5.57-7.94,3.64-18.9-4.31-24.46Z"/>
  <path class="cls-4" d="M1197.16,832.68c-8.09-5.34-18.99-3.12-24.34,4.98-11.31,17.12-23.21,34.23-35.38,50.83,0,0,0,0,0,.01-9.33,12.73-19.09,25.54-29.02,38.08,0,0,0,0,0,0-15.53,19.61-31.85,39.01-48.49,57.65-6.46,7.24-5.83,18.34,1.4,24.8,3.35,2.99,7.53,4.46,11.69,4.46,4.83,0,9.64-1.98,13.11-5.87,17.1-19.16,33.87-39.09,49.83-59.24,0,0,0,0,0,0,10.2-12.88,20.23-26.04,29.81-39.12,0,0,.01-.02.02-.03,12.5-17.06,24.73-34.64,36.35-52.24,5.35-8.09,3.12-18.99-4.98-24.34Z"/>
  <path class="cls-5" d="M1463.41,216.47c-9.64-.68-18.06,6.63-18.74,16.31-2.82,40.76-7.55,81.76-14.05,121.87-.95,5.88-1.94,11.75-2.97,17.61-1.68,9.55,4.7,18.66,14.26,20.34,1.03.18,2.05.27,3.06.27,8.37,0,15.78-6,17.28-14.52,1.06-6.01,2.07-12.03,3.05-18.07,6.68-41.16,11.53-83.24,14.42-125.07.67-9.68-6.63-18.06-16.31-18.74Z"/>
  <path class="cls-4" d="M1266.49,846c-8.2-5.18-19.05-2.73-24.23,5.46-10.63,16.83-21.71,33.52-32.91,49.61,0,0,0,0,0,0l-3.66,5.21s0,0,0,0c-4.06,5.77-8.15,11.51-12.29,17.21,0,0,0,0,0,0-16.84,23.16-34.73,46.16-53.17,68.35-6.2,7.46-5.18,18.54,2.28,24.73,3.28,2.73,7.26,4.06,11.22,4.06,5.04,0,10.05-2.16,13.52-6.34,18.93-22.78,37.28-46.38,54.57-70.15,0,0,0,0,0-.01,4.25-5.85,8.45-11.74,12.61-17.66,0,0,0,0,0,0l3.75-5.34s0,0,0,0c11.5-16.52,22.86-33.65,33.77-50.91,5.18-8.2,2.73-19.05-5.46-24.23Z"/>
  <path class="cls-4" d="M1332.54,864c-8.27-5.07-19.09-2.47-24.15,5.8-10.09,16.48-20.66,32.96-31.41,48.98-20.05,29.88-41.49,59.32-63.72,87.49-6.01,7.62-4.71,18.66,2.91,24.67,3.22,2.54,7.06,3.78,10.87,3.78,5.19,0,10.33-2.29,13.8-6.69,22.79-28.88,44.76-59.05,65.32-89.68,11.02-16.42,21.85-33.31,32.2-50.2,5.07-8.27,2.47-19.09-5.8-24.15Z"/>
  <path class="cls-1" d="M1513.77,360.77c-9.54-1.74-18.69,4.59-20.42,14.14-1.09,5.98-2.22,11.95-3.38,17.9-5.65,28.91-12.31,58.03-19.81,86.58-2.47,9.39-4.76,17.83-7.02,25.79,0,0,0,0,0,0-2.1,7.41-4.39,15.2-7,23.82-2.81,9.28,2.44,19.09,11.72,21.9,1.7.51,3.41.76,5.1.76,7.54,0,14.51-4.89,16.8-12.48,2.67-8.83,5.02-16.82,7.18-24.43h0s0,0,0,0c2.32-8.18,4.67-16.83,7.19-26.44,7.68-29.26,14.52-59.12,20.31-88.76,1.19-6.1,2.35-12.22,3.46-18.35,1.74-9.54-4.59-18.69-14.14-20.42Z"/>
  <path class="cls-5" d="M1529.26,377.1c11.47-68.78,17.97-139.36,19.32-209.76.19-9.7-7.52-17.71-17.22-17.9-9.79-.09-17.71,7.53-17.9,17.22-1.32,68.7-7.66,137.55-18.85,204.66,0,0,0,0,0,.01,0,0,0,0,0,0l-.39,2.25s0,0,0,0c-1.01,6.01-2.06,12-3.15,17.97-1.74,9.54,4.6,18.69,14.14,20.42,1.06.19,2.12.29,3.16.29,8.32,0,15.72-5.94,17.26-14.43,1.11-6.13,2.19-12.27,3.23-18.43,0,0,0,0,0,0l.4-2.3s0,0,0-.01Z"/>
  <path class="cls-5" d="M1608.9,272.12c3.85-43.95,5.81-88.65,5.81-132.85,0-9.69-.12-20.05-.35-31.66-.2-9.58-8.02-17.2-17.56-17.2-.12,0-.24,0-.37,0-9.7.2-17.4,8.22-17.2,17.92.23,11.37.35,21.48.35,30.94,0,43.18-1.91,86.85-5.67,129.78,0,0,0,0,0,0-.66,7.59-1.41,15.4-2.3,23.89,0,0,0,0,0,0-.21,2.03-.43,4.05-.65,6.07l-.14,1.31c-1.05,9.64,5.91,18.31,15.56,19.37.65.07,1.29.1,1.93.1,8.85,0,16.46-6.67,17.44-15.66l.14-1.31c.23-2.08.45-4.16.67-6.25,0,0,0,0,0,0,.9-8.68,1.67-16.68,2.35-24.46,0,0,0,0,0-.01Z"/>
  <path class="cls-4" d="M1395.77,886.36c-8.32-4.99-19.11-2.29-24.1,6.03-9.88,16.49-20.16,32.89-30.55,48.76,0,0,0,.01-.01.02-18.92,28.92-39.16,57.58-60.14,85.16-5.87,7.72-4.38,18.74,3.35,24.61,3.18,2.42,6.91,3.59,10.62,3.59,5.3,0,10.54-2.39,13.99-6.93,21.49-28.25,42.2-57.58,61.58-87.2,0,0,0-.02.01-.02,10.63-16.25,21.16-33.05,31.28-49.93,4.99-8.32,2.29-19.11-6.03-24.1Z"/>
  <path class="cls-5" d="M1677.94,229.42c1.71-30.16,2.58-60.49,2.58-90.14,0-18.94-.36-38.4-1.06-57.85-.35-9.69-8.44-17.2-18.19-16.92-9.69.35-17.27,8.5-16.92,18.19.69,19.03,1.04,38.06,1.04,56.58,0,28.99-.85,58.65-2.52,88.15,0,0,0,.01,0,.02l-.35,6.2s0,0,0,.01c-2.5,41.22-6.71,82.76-12.5,123.47-1.37,9.6,5.31,18.5,14.92,19.86.84.12,1.67.18,2.5.18,8.6,0,16.12-6.33,17.37-15.09,5.92-41.64,10.23-84.13,12.79-126.29,0,0,0-.01,0-.02l.36-6.33s0-.01,0-.02Z"/>
  <path class="cls-4" d="M1456.48,912.94c-8.35-4.95-19.12-2.19-24.06,6.16-9.65,16.3-19.84,32.77-30.28,48.97-18.2,28.25-37.63,56.33-57.76,83.45-5.78,7.79-4.15,18.79,3.64,24.57,3.14,2.33,6.81,3.46,10.45,3.46,5.37,0,10.67-2.45,14.12-7.1,20.59-27.74,40.46-56.46,59.08-85.36,10.67-16.57,21.09-33.42,30.97-50.09,4.94-8.35,2.19-19.12-6.16-24.06Z"/>
  <path class="cls-5" d="M1728.47,187.7c-.11,0-.22,0-.33,0-9.7-.18-17.41-8.19-17.23-17.89.22-11.6.32-21.3.32-30.53,0-8.57-.09-17.93-.28-28.62-.17-9.7,7.55-17.7,17.25-17.87,9.59-.1,17.7,7.55,17.87,17.25.19,10.9.29,20.47.29,29.25,0,9.46-.1,19.37-.32,31.19-.18,9.59-8.01,17.24-17.56,17.24Z"/>
  <path class="cls-5" d="M1704.08,439.91c-1.01,0-2.04-.09-3.08-.27-9.55-1.69-15.93-10.8-14.24-20.35,7.32-41.4,13.07-83.83,17.12-126.11.92-9.65,9.47-16.73,19.16-15.81,9.65.92,16.74,9.5,15.81,19.16-4.13,43.21-10.01,86.58-17.49,128.88-1.5,8.52-8.91,14.51-17.28,14.51Z"/>
  <path class="cls-4" d="M1514.77,943.62c-8.36-4.93-19.13-2.15-24.05,6.21-9.79,16.6-20.01,33.25-30.4,49.48,0,0,0,.01-.01.02-17.8,27.82-36.71,55.46-56.22,82.15-5.72,7.83-4.02,18.82,3.82,24.54,3.13,2.29,6.75,3.39,10.35,3.39,5.41,0,10.75-2.5,14.19-7.2,19.93-27.27,39.26-55.51,57.45-83.94,0-.01.02-.02.02-.04,10.61-16.59,21.06-33.61,31.07-50.57,4.93-8.36,2.15-19.12-6.21-24.05Z"/>
  <path class="cls-1" d="M1583.28,446.22c1.31-6.33,2.59-12.67,3.82-19.02,0-.01,0-.02,0-.04,1.23-6.33,2.42-12.68,3.57-19.04,1.72-9.55-4.62-18.68-14.16-20.41-9.56-1.73-18.69,4.62-20.41,14.16-1.12,6.22-2.29,12.42-3.49,18.61,0,.01,0,.02,0,.03-1.2,6.2-2.45,12.39-3.73,18.56,0,0,0,0,0,.01-9.25,44.55-20.73,89.16-34.11,132.59-2.05,6.67-4.14,13.31-6.29,19.94-2.1,6.47-4.24,12.92-6.42,19.36-3.12,9.19,1.8,19.16,10.99,22.28,1.87.63,3.77.94,5.65.94,7.32,0,14.15-4.61,16.63-11.92,2.24-6.59,4.43-13.19,6.58-19.82,2.2-6.78,4.34-13.59,6.44-20.42,13.7-44.48,25.46-90.16,34.93-135.79,0,0,0,0,0-.01Z"/>
  <path class="cls-11" d="M1640.79,491.47c1.6-6.96,3.14-13.94,4.64-20.93,0-.02.01-.04.02-.06,1.48-6.9,2.92-13.81,4.31-20.74,1.91-9.51-4.25-18.77-13.77-20.68-9.49-1.89-18.77,4.25-20.68,13.76-1.36,6.77-2.76,13.53-4.21,20.26,0,.02,0,.03,0,.05-1.47,6.84-2.98,13.66-4.54,20.47,0,0,0,0,0,0-10.67,46.49-23.75,93.15-38.86,138.7,0,.01-.01.02-.01.04-1.97,5.92-3.97,11.83-6,17.71,0,0,0,0,0,0-2.02,5.84-4.07,11.65-6.16,17.46-3.28,9.13,1.46,19.19,10.59,22.47,1.96.71,3.97,1.04,5.94,1.04,7.2,0,13.95-4.46,16.53-11.63,2.13-5.94,4.23-11.89,6.3-17.86,0,0,0,0,0-.01,2.08-6.02,4.13-12.06,6.14-18.11,0-.02,0-.03.01-.05,15.46-46.6,28.84-94.34,39.76-141.9,0,0,0,0,0,0Z"/>
  <path class="cls-11" d="M1696.75,540.2c2.22-8.81,4.39-17.71,6.44-26.43,2.22-9.44-3.64-18.9-13.08-21.11-9.44-2.21-18.9,3.64-21.11,13.09-2,8.53-4.13,17.23-6.3,25.86-2.57,10.19-5.03,19.59-7.52,28.74-8.7,31.93-18.55,64.06-29.28,95.51,0,.01-.01.03-.02.04-1.93,5.65-3.88,11.28-5.87,16.9,0,0,0,0,0,0-1.99,5.61-3.99,11.21-6.04,16.8-3.34,9.11,1.33,19.2,10.44,22.54,2,.73,4.04,1.08,6.05,1.08,7.16,0,13.88-4.41,16.49-11.52,2.1-5.71,4.15-11.44,6.18-17.17,0,0,0,0,0,0,2.03-5.74,4.03-11.51,6-17.28,0-.02,0-.03.01-.05,10.97-32.14,21.04-64.98,29.93-97.61,2.55-9.36,5.07-18.97,7.69-29.37Z"/>
  <path class="cls-11" d="M1724.42,621.89c-9.26-2.88-19.11,2.3-21.98,11.57-7.6,24.46-15.97,49.31-24.88,73.85-3.31,9.12,1.4,19.19,10.51,22.5,1.98.72,4,1.06,5.99,1.06,7.18,0,13.92-4.44,16.51-11.57,9.1-25.06,17.65-50.44,25.41-75.43,2.88-9.26-2.3-19.11-11.57-21.98Z"/>
  <path class="cls-5" d="M1757.73,508.67c-1.21,0-2.44-.13-3.67-.39-9.49-2.02-15.54-11.35-13.52-20.84,9.05-42.5,16.52-85.96,22.19-129.15,1.27-9.62,10.08-16.4,19.71-15.12,9.62,1.27,16.39,10.09,15.13,19.7-5.8,44.11-13.43,88.48-22.67,131.88-1.76,8.26-9.05,13.91-17.16,13.91Z"/>
  <path class="cls-4" d="M1570.76,978.33c-8.35-4.93-19.12-2.16-24.06,6.19-9.89,16.74-20.29,33.65-30.92,50.26,0,0,0,0,0,0-1.01,1.58-2.03,3.15-3.05,4.72l-1.45,2.24s0,0,0,0c-7.91,12.23-16.15,24.61-24.51,36.81,0,0,0,0,0,0-6.85,10-13.84,19.97-20.77,29.63-5.65,7.88-3.85,18.86,4.03,24.51,3.1,2.22,6.68,3.29,10.22,3.29,5.47,0,10.86-2.55,14.29-7.33,7.08-9.86,14.21-20.04,21.21-30.25,0,0,0,0,0-.01,8.53-12.45,16.95-25.1,25.02-37.58,0,0,0,0,0-.01l1.42-2.19c1.06-1.63,2.12-3.27,3.17-4.91,10.85-16.96,21.47-34.23,31.57-51.32,4.93-8.35,2.16-19.12-6.19-24.06Z"/>
  <g>
    <path class="cls-4" d="M1598.07,1093.48c11.01-17.1,21.92-34.71,32.42-52.35,4.96-8.33,2.23-19.11-6.1-24.08-8.34-4.96-19.12-2.23-24.08,6.11-10.29,17.29-20.98,34.55-31.77,51.31,0,0,0,0,0,0-16.07,24.96-33.12,49.98-50.69,74.39,0,0,0,0,0,0,0,0,0,0,0,0l-1.17,1.63c-1.08,1.5-2.15,3-3.24,4.49-5.7,7.85-3.97,18.83,3.88,24.54,3.12,2.27,6.73,3.36,10.31,3.36,5.43,0,10.78-2.51,14.22-7.24,1.12-1.55,2.24-3.1,3.36-4.66l1.15-1.6s0,0,0,0c17.92-24.89,35.32-50.42,51.71-75.88,0,0,0,0,0,0Z"/>
    <path class="cls-4" d="M1675.61,1059.84c-8.31-5.01-19.1-2.34-24.11,5.96-6.62,10.98-13.62,22.28-20.78,33.59,0,0,0,0,0,0-4.04,6.36-8.11,12.7-12.22,19.01,0,0,0,0,0,0,0,0,0,0,0,0-4.45,6.84-8.95,13.64-13.49,20.41,0,0,0,.02-.02.03-7.52,11.2-15.39,22.64-23.39,33.99,0,0,0,0,0,0-6.47,9.18-12.47,17.54-18.35,25.57-5.73,7.83-4.03,18.82,3.8,24.55,3.13,2.29,6.76,3.39,10.36,3.39,5.41,0,10.75-2.49,14.19-7.19,6-8.2,12.12-16.72,18.71-26.07,0,0,0,0,0,0,0,0,0,0,0,0,8.15-11.56,16.17-23.22,23.83-34.64.01-.02.02-.03.03-.04,4.64-6.91,9.22-13.85,13.76-20.82,0,0,0,0,0,0,4.19-6.43,8.35-12.89,12.46-19.38,0,0,0,0,0,0,0,0,0,0,0,0,7.3-11.52,14.43-23.04,21.19-34.24,5.01-8.31,2.34-19.1-5.96-24.11Z"/>
  </g>
  <path class="cls-4" d="M1724.28,1106.74c-8.27-5.08-19.08-2.49-24.16,5.77-11.22,18.27-22.88,36.53-34.65,54.28,0,0,0,0,0,.01-17.81,26.86-36.61,53.65-55.86,79.64-5.78,7.79-4.14,18.79,3.65,24.57,3.14,2.33,6.81,3.45,10.44,3.45,5.37,0,10.68-2.46,14.13-7.11,19.62-26.47,38.76-53.77,56.91-81.13,0,0,.01-.02.02-.02,12-18.08,23.87-36.69,35.31-55.31,5.08-8.26,2.49-19.08-5.77-24.16Z"/>
  <g>
    <path class="cls-8" d="M1841.19,399.86c-9.58-1.53-18.59,4.99-20.11,14.58-.79,4.97-1.6,9.95-2.44,14.91,0,0,0,0,0,.01-2.33,13.8-4.83,27.58-7.42,40.94-1.84,9.52,4.38,18.74,13.91,20.58,1.13.22,2.25.32,3.36.32,8.24,0,15.6-5.83,17.22-14.23,2.64-13.64,5.19-27.69,7.56-41.77,0,0,0-.01,0-.02.85-5.07,1.68-10.14,2.49-15.22,1.53-9.58-5-18.58-14.57-20.11Z"/>
    <path class="cls-8" d="M1918.03,447.08c1.98-11.72,3.88-23.61,5.63-35.32,1.43-9.59-5.19-18.53-14.78-19.96-9.57-1.43-18.53,5.18-19.97,14.78-1.72,11.49-3.57,23.15-5.52,34.65,0,0,0,0,0,0-3.7,21.87-7.86,43.94-12.37,65.6,0,0,0,0,0,.01,0,.02,0,.03-.01.05,0,.03,0,.06-.01.09,0,.01,0,.03-.01.05-3.29,15.83-6.92,32.1-10.77,48.34-2.24,9.44,3.6,18.91,13.04,21.14,1.36.32,2.73.48,4.07.48,7.95,0,15.16-5.44,17.08-13.52,3.92-16.51,7.6-33.05,10.95-49.15.03-.12.05-.25.08-.39,4.59-22.07,8.83-44.55,12.6-66.83,0,0,0,0,0,0Z"/>
    <path class="cls-8" d="M1975.76,388.55c-9.63-1.36-18.5,5.31-19.86,14.92-1.55,10.92-3.3,22.43-5.2,34.21,0,0,0,0,0,0-1.91,11.88-3.88,23.47-5.86,34.43,0,0,0,.01,0,.02-4.08,22.59-8.61,45.25-13.45,67.36,0,0,0,0,0,0-3.32,15.17-6.92,30.64-10.69,45.97l-1.46,5.83s0,.03,0,.04c-3.34,13.36-6.53,25.66-9.78,37.59-2.54,9.36,2.98,19.01,12.34,21.56,1.54.42,3.09.62,4.62.62,7.73,0,14.81-5.14,16.94-12.96,3.31-12.17,6.57-24.7,9.96-38.3,0-.02,0-.03.01-.05l1.48-5.93c3.84-15.61,7.51-31.37,10.9-46.84,0,0,0,0,0,0,4.93-22.51,9.54-45.59,13.69-68.59,0-.02,0-.03.01-.05,2.01-11.19,4.03-23,5.98-35.1,0,0,0,0,0-.01,1.93-11.99,3.71-23.72,5.3-34.85,1.36-9.6-5.31-18.5-14.92-19.86Z"/>
  </g>
  <path class="cls-4" d="M1770.22,1157.89c-8.21-5.16-19.05-2.69-24.22,5.52-11.97,19.05-24.32,37.97-36.71,56.24-18.1,26.69-37.24,53.42-56.88,79.45-5.84,7.74-4.3,18.76,3.44,24.6,3.17,2.39,6.88,3.54,10.57,3.54,5.32,0,10.58-2.41,14.03-6.99,19.99-26.5,39.48-53.71,57.91-80.89,12.62-18.6,25.19-37.87,37.38-57.26,5.16-8.21,2.69-19.06-5.53-24.22Z"/>
  <path class="cls-4" d="M1803.62,1245.61c-3.27,0-6.58-.91-9.51-2.83-8.12-5.29-10.47-16.07-5.2-24.2l.21-.33c5.28-8.14,16.17-10.45,24.3-5.17,8.14,5.28,10.45,16.16,5.17,24.3,0,.01-.13.19-.14.21-3.38,5.18-9.06,8.01-14.83,8.01Z"/>
  <path class="cls-4" d="M1813.17,1213.4c-8.15-5.26-19.02-2.92-24.28,5.23-12.75,19.76-25.96,39.45-39.25,58.54,0,0,0,0,0,.01-5.73,8.23-11.71,16.66-18.27,25.76,0,0,0,.01-.01.02-13.05,18.12-26.51,36.16-40.01,53.64-5.93,7.68-4.51,18.71,3.17,24.64,3.2,2.47,6.97,3.67,10.72,3.67,5.25,0,10.45-2.35,13.91-6.83,13.73-17.78,27.42-36.13,40.69-54.56.01-.02.02-.03.03-.04,6.66-9.24,12.73-17.81,18.56-26.19,0-.01.02-.03.03-.04,13.53-19.42,26.96-39.46,39.94-59.56,5.26-8.15,2.92-19.02-5.23-24.28Z"/>
  <path class="cls-4" d="M1852.77,1273.5c-8.08-5.37-18.98-3.18-24.35,4.9-13.67,20.55-27.93,41.16-42.37,61.25,0,0,0,0,0,0l-.95,1.32c-1.43,1.99-2.86,3.99-4.3,5.97,0,0,0,0,0,0-17.62,24.3-36.11,48.62-54.93,72.31-6.04,7.59-4.77,18.64,2.82,24.68,3.23,2.57,7.09,3.81,10.92,3.81,5.17,0,10.29-2.27,13.76-6.64,19.14-24.09,37.94-48.83,55.86-73.54,0,0,0,0,0,0,1.47-2.03,2.94-4.07,4.4-6.11l.94-1.31s0,0,0,0c14.69-20.44,29.19-41.4,43.09-62.3,5.37-8.08,3.18-18.98-4.89-24.35Z"/>
  <path class="cls-5" d="M1974.45,1078.21c-2.62,0-5.28-.59-7.79-1.83-8.69-4.31-12.24-14.85-7.93-23.54,26.04-52.51,50.11-106.81,71.54-161.4,3.55-9.03,13.74-13.47,22.77-9.93,9.03,3.54,13.48,13.74,9.93,22.77-21.8,55.53-46.28,110.76-72.77,164.17-3.06,6.18-9.29,9.77-15.75,9.77Z"/>
  <path class="cls-5" d="M1995.93,1179.61c-2.84,0-5.71-.69-8.38-2.14-8.52-4.64-11.67-15.3-7.03-23.83,25.54-46.93,49.65-95.55,71.65-144.52,3.97-8.85,14.36-12.8,23.22-8.82,8.85,3.98,12.8,14.37,8.82,23.22-22.36,49.78-46.87,99.21-72.84,146.91-3.18,5.85-9.22,9.17-15.44,9.17Z"/>
  <g>
    <path class="cls-2" d="M2004.34,1146.61c-8.52-4.63-19.18-1.49-23.82,7.03-4.61,8.46-9.72,17.67-15.62,28.14,0,0,0,.01-.01.02l-.59,1.06c-2.39,4.24-4.78,8.48-7.21,12.7,0,0,0,.01-.01.02-16.24,28.29-33.5,56.79-51.31,84.72,0,0,0,0,0,.01-13.35,20.93-27.32,42-41.53,62.64-5.5,7.99-3.48,18.93,4.5,24.43,3.04,2.09,6.51,3.1,9.95,3.1,5.58,0,11.07-2.66,14.48-7.6,14.45-20.98,28.65-42.4,42.22-63.67,0,0,0,0,0-.01,18.1-28.39,35.65-57.36,52.16-86.12,0,0,0-.02.01-.03,2.47-4.3,4.9-8.62,7.34-12.94l.59-1.05s0-.01.01-.02c5.99-10.63,11.19-19.98,15.88-28.59,4.64-8.52,1.49-19.19-7.03-23.83Z"/>
    <path class="cls-2" d="M1892.37,1243.96c10.37-16.66,20.89-34.15,31.28-51.98,4.88-8.38,2.05-19.14-6.34-24.02-8.38-4.89-19.13-2.05-24.02,6.33-10.22,17.54-20.57,34.74-30.76,51.12,0,0,0,0,0,.01-10.8,17.36-22.28,35.18-34.11,52.97-5.37,8.08-3.18,18.98,4.89,24.35,2.99,1.99,6.37,2.94,9.71,2.94,5.68,0,11.26-2.75,14.64-7.84,12.04-18.09,23.71-36.21,34.69-53.88,0,0,0-.01,0-.02Z"/>
  </g>
  <path class="cls-6" d="M1497.25,1710.66s.01,0,.02-.01c20.34-17.93,40.33-36.24,59.42-54.41,6.94-6.61,13.94-13.37,21.41-20.68,6.93-6.79,7.05-17.91.26-24.84-6.78-6.93-17.91-7.05-24.84-.26-7.35,7.2-14.24,13.85-21.06,20.34-18.77,17.87-38.42,35.87-58.43,53.51,0,0,0,0,0,0-237.35,209.26-523.51,362.86-827.55,444.2-9.37,2.51-14.93,12.14-12.43,21.51,2.1,7.85,9.2,13.03,16.96,13.03,1.5,0,3.03-.19,4.55-.6,156.12-41.77,307.53-101.91,450.03-178.77,140.13-75.57,271.9-167.43,391.65-273Z"/>
  <path class="cls-6" d="M1605.27,1676.56c-6.7-7.01-17.82-7.27-24.83-.57-19.04,18.18-38.55,36.16-58.01,53.42,0,0,0,0-.01.01-16.44,14.58-33.85,29.52-51.76,44.42-34.57,28.75-70.29,56.6-106.15,82.79,0,0,0,0,0,0-185.57,135.47-390.31,239.24-608.53,308.45-9.25,2.93-14.37,12.81-11.43,22.05,2.37,7.48,9.29,12.26,16.74,12.26,1.76,0,3.55-.27,5.31-.83,221.85-70.35,429.99-175.85,618.63-313.56,0,0,0,0,0,0,36.46-26.62,72.76-54.93,107.9-84.15,18.19-15.13,35.89-30.32,52.61-45.14,0,0,.01-.01.02-.02,19.78-17.55,39.62-35.82,58.97-54.3,7.02-6.7,7.27-17.82.57-24.83Z"/>
  <path class="cls-10" d="M637.88,1685.47c1.89,0,3.82-.31,5.7-.96,33.73-11.58,67.47-24.43,100.3-38.19,117.37-49.2,229.12-112.33,332.14-187.66,7.83-5.72,9.54-16.71,3.81-24.55-5.72-7.83-16.72-9.54-24.55-3.81-100.8,73.7-210.14,135.48-324.99,183.62-32.11,13.46-65.13,26.03-98.13,37.36-9.18,3.15-14.06,13.14-10.91,22.32,2.5,7.29,9.32,11.87,16.61,11.87Z"/>
  <path class="cls-10" d="M647.33,1734.32c2.52,7.26,9.32,11.82,16.59,11.82,1.91,0,3.85-.31,5.75-.97,211.97-73.47,404.78-186.75,573.1-336.69,7.24-6.45,7.88-17.55,1.43-24.8-6.45-7.24-17.56-7.88-24.8-1.43-164.84,146.84-353.67,257.78-561.24,329.73-9.17,3.18-14.02,13.18-10.84,22.35Z"/>
  <path class="cls-10" d="M596.77,1836.46c1.61,0,3.24-.22,4.86-.69,276.14-79.4,531.79-227.64,739.31-428.69,6.97-6.75,7.14-17.87.39-24.84-6.75-6.97-17.87-7.14-24.84-.39-203.4,197.05-453.96,342.34-724.58,420.16-9.32,2.68-14.71,12.41-12.03,21.74,2.21,7.7,9.24,12.71,16.87,12.71Z"/>
  <path class="cls-10" d="M549.75,1917.16c1.4,0,2.82-.17,4.23-.52,330.55-81.75,631.58-254.63,870.54-499.94,6.77-6.95,6.62-18.07-.33-24.84-6.95-6.77-18.07-6.62-24.84.33-234.39,240.61-529.63,410.18-853.81,490.35-9.42,2.33-15.16,11.85-12.83,21.27,1.98,8,9.15,13.35,17.04,13.35Z"/>
  <path class="cls-6" d="M544.91,1986.54c360.35-83.93,686.36-270.86,942.79-540.56,6.68-7.03,6.4-18.15-.63-24.83-7.03-6.68-18.15-6.4-24.83.63-251.69,264.72-571.66,448.18-925.3,530.55-9.45,2.2-15.32,11.64-13.12,21.09,1.89,8.11,9.11,13.58,17.09,13.58,1.32,0,2.66-.15,4-.46Z"/>
  <path class="cls-6" d="M1536.31,1490.37c6.68-7.03,6.39-18.15-.64-24.83-7.03-6.68-18.15-6.39-24.83.64-260.65,274.51-592.13,464.76-958.6,550.18-9.45,2.2-15.32,11.65-13.12,21.1,1.89,8.1,9.11,13.58,17.09,13.58,1.32,0,2.66-.15,4-.46,373.18-86.99,710.71-280.71,976.1-560.21Z"/>
  <path class="cls-6" d="M1521.23,1598.99c16.37-15.79,32.62-32.01,48.31-48.19,6.75-6.97,6.58-18.08-.39-24.84-6.96-6.75-18.09-6.58-24.84.39-15.42,15.91-31.4,31.84-47.48,47.37,0,0,0,0-.01.01-253.49,244.6-567.24,418-907.34,501.43-9.42,2.31-15.18,11.82-12.87,21.24,1.97,8.02,9.14,13.38,17.04,13.38,1.39,0,2.79-.16,4.2-.51,346.12-84.91,665.41-261.36,923.36-510.27,0,0,.01-.01.02-.02Z"/>
  <g>
    <path class="cls-3" d="M1936.55,1498.13c30.76-41.22,60.15-83.53,88.11-126.84"/>
    <path class="cls-9" d="M1936.54,1515.69c-3.65,0-7.34-1.14-10.49-3.49-7.77-5.8-9.37-16.81-3.57-24.58,30.32-40.63,59.74-82.97,87.44-125.86,5.26-8.15,16.13-10.49,24.28-5.23,8.15,5.26,10.49,16.14,5.23,24.28-28.12,43.55-58,86.55-88.79,127.81-3.45,4.62-8.74,7.06-14.09,7.06Z"/>
  </g>
  <g>
    <path class="cls-2" d="M956.8,828.28c-7.41-6.26-18.49-5.32-24.75,2.09-18.65,22.08-38.5,43.73-59.01,64.37,0,0,0,0-.01.01-133.28,134.08-299.65,230.75-481.13,279.54-32.09,8.63-65.06,15.84-98,21.44-9.56,1.63-16,10.7-14.37,20.26,1.46,8.57,8.89,14.62,17.29,14.62.98,0,1.97-.08,2.97-.25,34.03-5.79,68.09-13.24,101.23-22.15,187.46-50.4,359.29-150.23,496.93-288.7,0,0,0-.01.01-.02,21.17-21.3,41.67-43.66,60.93-66.46,6.26-7.41,5.33-18.49-2.09-24.75Z"/>
    <path class="cls-2" d="M490.92,1036.9c2.31,0,4.67-.46,6.93-1.43,68.16-29.31,133.11-66.57,193.04-110.74,7.81-5.76,9.47-16.75,3.72-24.56-5.76-7.81-16.75-9.47-24.56-3.72-57.77,42.58-120.38,78.5-186.08,106.75-8.91,3.83-13.03,14.16-9.2,23.07,2.86,6.65,9.34,10.63,16.14,10.63Z"/>
    <path class="cls-2" d="M365.2,1148.92c1.43,0,2.88-.18,4.33-.54,48.31-12.25,96.15-28.15,142.21-47.27,0,0,0,0,0,0,85.11-35.33,165.32-81.96,238.41-138.62,0,0,.01,0,.02-.01,36.09-27.98,70.68-58.63,102.82-91.12,6.82-6.9,6.76-18.02-.13-24.84-6.89-6.82-18.02-6.76-24.84.13-31.06,31.39-64.49,61.02-99.37,88.06,0,0,0,0-.01.01-70.62,54.74-148.13,99.81-230.36,133.94-44.49,18.47-90.7,33.83-137.37,45.66-9.4,2.38-15.09,11.94-12.71,21.34,2.02,7.95,9.17,13.25,17.01,13.25Z"/>
    <path class="cls-2" d="M483.29,1215.11c-49.48,17.03-100.62,30.73-152,40.72-28.36,5.51-57.29,9.99-85.99,13.32-9.64,1.12-16.54,9.83-15.43,19.47,1.04,8.95,8.63,15.54,17.43,15.54.67,0,1.36-.04,2.04-.12,29.58-3.43,59.41-8.05,88.65-13.73,52.98-10.3,105.71-24.42,156.73-41.99,9.17-3.16,14.05-13.15,10.89-22.32-3.16-9.17-13.15-14.05-22.32-10.89Z"/>
    <path class="cls-2" d="M409.14,1305.86c-39.73,10.05-80.49,18.16-121.15,24.08,0,0,0,0,0,0-26.63,3.88-53.65,6.9-80.32,8.98-9.67.75-16.9,9.2-16.15,18.88.72,9.21,8.41,16.2,17.49,16.2.46,0,.92-.02,1.38-.05,27.44-2.14,55.25-5.24,82.65-9.24,41.86-6.1,83.82-14.44,124.71-24.79,9.4-2.38,15.1-11.93,12.72-21.34-2.38-9.41-11.94-15.1-21.34-12.72Z"/>
  </g>
  <path class="cls-2" d="M178.7,1441.9c.3,0,.6,0,.9-.02,26.37-1.33,53.16-3.5,79.63-6.45,0,0,0,0,0,0,36.33-4.05,72.96-9.72,108.86-16.84,9.51-1.89,15.7-11.13,13.81-20.65-1.89-9.51-11.13-15.7-20.65-13.81-34.93,6.93-70.57,12.44-105.92,16.39,0,0,0,0,0,0-25.76,2.88-51.83,4.99-77.49,6.28-9.69.49-17.15,8.74-16.66,18.43.47,9.39,8.23,16.68,17.53,16.68Z"/>
  <path class="cls-4" d="M154.98,1508.71c.18,0,.36,0,.55,0,26.21-.8,52.51-2.34,78.19-4.59,32.93-2.88,66.24-7.01,99.03-12.3,9.58-1.54,16.09-10.56,14.54-20.14-1.54-9.58-10.57-16.09-20.14-14.54-31.95,5.15-64.41,9.18-96.49,11.99-25.01,2.18-50.65,3.69-76.2,4.47-9.7.3-17.32,8.4-17.02,18.09.29,9.51,8.09,17.03,17.55,17.03Z"/>
  <path class="cls-4" d="M136.99,1574.98c.1,0,.2,0,.3,0,25.83-.43,51.99-1.57,77.75-3.37,30.77-2.16,61.79-5.34,92.21-9.46,9.61-1.3,16.35-10.15,15.05-19.76-1.3-9.61-10.14-16.36-19.76-15.05-29.67,4.02-59.94,7.12-89.96,9.23-25.14,1.77-50.66,2.87-75.87,3.29-9.7.16-17.43,8.15-17.27,17.85.16,9.6,7.99,17.27,17.56,17.27Z"/>
  <path class="cls-4" d="M124.21,1640.96h.13c26-.19,52.27-1.06,78.07-2.58,29.13-1.71,58.44-4.29,87.14-7.65,9.64-1.13,16.53-9.85,15.4-19.49-1.13-9.63-9.85-16.51-19.49-15.4-28.02,3.28-56.66,5.8-85.11,7.47-25.21,1.48-50.87,2.33-76.28,2.52-9.7.07-17.5,7.99-17.43,17.7.07,9.66,7.92,17.43,17.56,17.43Z"/>
  <path class="cls-4" d="M116.32,1706.83h.04c26.37-.06,52.93-.77,78.94-2.11,0,0,0,0,0,0,27.6-1.43,55.67-3.63,83.43-6.55,9.65-1.01,16.65-9.66,15.63-19.31-1.01-9.65-9.67-16.66-19.31-15.63-27.15,2.85-54.59,5.01-81.57,6.41h0c-25.43,1.32-51.4,2.01-77.2,2.07-9.7.02-17.55,7.9-17.53,17.6.02,9.69,7.88,17.53,17.56,17.53Z"/>
  <path class="cls-4" d="M113.11,1772.68c26.45,0,53.46-.66,80.27-1.96,26.69-1.3,53.78-3.28,80.52-5.89,9.66-.94,16.72-9.54,15.77-19.19-.94-9.66-9.55-16.7-19.19-15.77-26.17,2.56-52.69,4.5-78.8,5.77-26.25,1.27-52.69,1.92-78.57,1.92-9.7,0-17.56,7.87-17.56,17.57,0,9.7,7.87,17.56,17.57,17.56Z"/>
  <path class="cls-4" d="M114.48,1838.49c27.11-.02,54.72-.71,82.06-2.03h0c25.88-1.26,52.24-3.14,78.37-5.61,9.66-.91,16.75-9.48,15.83-19.14-.91-9.65-9.44-16.75-19.14-15.83-25.6,2.42-51.42,4.27-76.76,5.5h0c-26.79,1.3-53.84,1.97-80.39,1.99-9.7,0-17.56,7.88-17.55,17.58,0,9.7,7.87,17.55,17.56,17.55h.01Z"/>
  <path class="cls-4" d="M120.52,1904.28c28.36-.12,56.72-.89,84.3-2.31,25.06-1.28,50.86-3.18,76.7-5.62,9.66-.91,16.74-9.49,15.83-19.14-.91-9.66-9.48-16.75-19.14-15.83-25.33,2.4-50.63,4.26-75.19,5.51-27.03,1.39-54.84,2.15-82.65,2.26-9.7.04-17.53,7.94-17.49,17.64.04,9.67,7.9,17.49,17.56,17.49h.07Z"/>
  <path class="cls-4" d="M131.45,1970.04c28.71-.29,57.93-1.26,86.86-2.9,25.25-1.43,50.63-3.39,75.45-5.83,9.65-.95,16.71-9.54,15.76-19.2-.95-9.65-9.54-16.7-19.2-15.77-24.34,2.39-49.24,4.31-74.01,5.72-28.39,1.61-57.06,2.57-85.22,2.85-9.7.1-17.49,8.04-17.39,17.74.09,9.64,7.94,17.39,17.56,17.39h.18Z"/>
  <path class="cls-4" d="M237.22,2031.95c24.7-1.6,49.83-3.72,74.7-6.32,9.65-1.01,16.65-9.64,15.65-19.29-1-9.65-9.63-16.63-19.29-15.65-24.41,2.55-49.08,4.63-73.32,6.2,0,0,0,0,0,0-28.91,1.87-58.6,3.08-88.24,3.61-9.7.17-17.42,8.18-17.25,17.87.17,9.59,8,17.25,17.56,17.25.11,0,.21,0,.32,0,30.19-.54,60.43-1.78,89.88-3.68,0,0,0,0,0,0Z"/>
  <path class="cls-4" d="M261.79,2096.23c24.7-1.85,49.69-4.2,74.27-6.98,9.64-1.09,16.57-9.79,15.48-19.43-1.09-9.64-9.78-16.58-19.43-15.48-24.14,2.73-48.68,5.04-72.95,6.86,0,0,0,0,0,0-30.15,2.26-61.02,3.84-91.76,4.7-9.7.27-17.34,8.35-17.07,18.05.26,9.53,8.07,17.08,17.55,17.08.16,0,.33,0,.5,0,31.29-.87,62.72-2.48,93.41-4.78,0,0,0,0,0,0Z"/>
  <path class="cls-4" d="M292.35,2159.78c24.47-2.14,49.43-4.8,74.19-7.88,9.63-1.2,16.46-9.98,15.26-19.6-1.2-9.63-10-16.45-19.6-15.26-24.34,3.04-48.87,5.64-72.91,7.75,0,0,0,0,0,0-31.61,2.77-63.86,4.82-95.85,6.09-9.69.39-17.24,8.56-16.85,18.25.38,9.46,8.16,16.87,17.54,16.87.24,0,.47,0,.71-.01,32.55-1.3,65.36-3.38,97.52-6.2,0,0,0,0,0,0Z"/>
  <path class="cls-4" d="M403.86,2213.39c9.61-1.33,16.32-10.21,14.98-19.81s-10.2-16.29-19.81-14.98c-24.28,3.37-48.99,6.36-73.44,8.87-32.98,3.39-66.79,6.02-100.48,7.82-9.69.52-17.12,8.79-16.6,18.48.5,9.37,8.25,16.62,17.52,16.62.32,0,.64,0,.96-.03,34.26-1.84,68.64-4.51,102.18-7.96,24.87-2.55,50-5.59,74.69-9.01Z"/>
  <path class="cls-4" d="M448.47,2273.33c9.58-1.5,16.14-10.48,14.65-20.06-1.5-9.59-10.48-16.15-20.06-14.65-24.35,3.8-49.36,7.25-74.33,10.24-34.92,4.19-70.52,7.56-105.82,10.03-9.68.67-16.98,9.07-16.3,18.75.65,9.26,8.36,16.34,17.5,16.34.41,0,.82-.01,1.24-.04,35.88-2.5,72.07-5.93,107.56-10.19,25.38-3.04,50.8-6.55,75.56-10.41Z"/>
  <path class="cls-4" d="M501.18,2331.32c9.55-1.68,15.94-10.79,14.26-20.34-1.68-9.55-10.77-15.93-20.34-14.26-25.64,4.51-51.13,8.54-75.76,11.99-36.87,5.16-74.6,9.45-112.13,12.75-9.66.85-16.81,9.37-15.96,19.03.8,9.14,8.47,16.03,17.48,16.03.51,0,1.03-.02,1.56-.07,38.13-3.35,76.45-7.71,113.92-12.95,25.03-3.5,50.93-7.6,76.98-12.18Z"/>
  <g>
    <path class="cls-3" d="M2035.03,1474.05c28.91-41.55,56.49-84.08,82.71-127.53"/>
    <path class="cls-9" d="M2035.01,1491.62c-3.46,0-6.96-1.02-10.02-3.15-7.96-5.54-9.93-16.49-4.39-24.45,28.55-41.03,56.16-83.61,82.09-126.57,5.01-8.3,15.81-10.97,24.11-5.96,8.3,5.01,10.98,15.81,5.96,24.11-26.31,43.61-54.35,86.83-83.33,128.49-3.41,4.91-8.88,7.53-14.43,7.53Z"/>
  </g>
  <g>
    <path class="cls-3" d="M2134.37,1444.1c21.99-34,43.17-68.59,63.46-103.74"/>
    <path class="cls-9" d="M2134.35,1461.67c-3.27,0-6.58-.91-9.52-2.82-8.14-5.27-10.48-16.14-5.21-24.29,21.88-33.82,43.07-68.47,63-102.98,4.85-8.4,15.59-11.28,23.99-6.43,8.4,4.85,11.28,15.59,6.43,23.99-20.22,35.03-41.73,70.19-63.93,104.5-3.36,5.2-9.01,8.03-14.77,8.03Z"/>
  </g>
  <path class="cls-10" d="M1971.04,1684.99c-3.93,0-7.88-1.31-11.16-4-7.49-6.17-8.56-17.24-2.4-24.72,23.83-28.94,47.16-58.67,69.36-88.36,5.81-7.77,16.82-9.36,24.59-3.55,7.77,5.81,9.36,16.82,3.55,24.58-22.52,30.13-46.2,60.29-70.38,89.65-3.47,4.22-8.5,6.4-13.57,6.4Z"/>
  <g>
    <path class="cls-4" d="M483.81,2401.03c26.26-4.27,52.97-9.11,79.38-14.37,9.51-1.9,15.69-11.15,13.79-20.66-1.9-9.51-11.15-15.67-20.66-13.79-26.01,5.18-52.31,9.95-78.16,14.15,0,0,0,0,0,0-39.3,6.4-79.52,11.84-119.54,16.17-9.65,1.04-16.62,9.71-15.57,19.35.97,9,8.59,15.68,17.44,15.68.63,0,1.27-.03,1.91-.11,40.64-4.4,81.49-9.92,121.41-16.42,0,0,0,0,0,0Z"/>
    <path class="cls-4" d="M635.97,2438.48c9.46-2.14,15.39-11.55,13.25-21.01-2.14-9.46-11.55-15.41-21.01-13.25-27.12,6.14-54.6,11.85-81.68,16.97,0,0,0,0,0,0-42.31,7.99-85.56,14.9-128.56,20.54-9.62,1.26-16.39,10.08-15.13,19.7,1.16,8.84,8.71,15.28,17.39,15.28.76,0,1.53-.05,2.31-.15,43.65-5.73,87.56-12.74,130.51-20.86,27.49-5.19,55.39-10.99,82.92-17.22Z"/>
    <path class="cls-4" d="M734.74,2463.92c-2.43-9.39-12.02-15.04-21.41-12.6-28.79,7.46-58.07,14.45-87.01,20.79,0,0,0,0,0,0-45.9,10.05-92.98,18.89-139.95,26.26-9.58,1.51-16.13,10.49-14.63,20.08,1.36,8.66,8.83,14.84,17.33,14.84.9,0,1.82-.07,2.75-.21,47.66-7.48,95.44-16.45,142.02-26.65,0,0,0,0,0,0,29.37-6.44,59.08-13.53,88.3-21.1,9.39-2.43,15.03-12.02,12.6-21.41Z"/>
  </g>
  <path class="cls-4" d="M837.74,2502.9c-2.78-9.3-12.56-14.59-21.86-11.8-31.27,9.33-63.47,18.23-95.71,26.43,0,0,0,0,0,0-50.79,12.93-102.85,24.39-154.75,34.06-9.54,1.78-15.83,10.95-14.05,20.49,1.58,8.45,8.95,14.35,17.25,14.35,1.07,0,2.15-.1,3.24-.3,52.64-9.81,105.45-21.44,156.98-34.55,0,0,0,0,0,0,32.7-8.32,65.37-17.35,97.09-26.82,9.3-2.77,14.58-12.56,11.81-21.86Z"/>
  <g>
    <path class="cls-3" d="M2215.01,1439.81c18.94-30.54,37.23-61.52,54.86-92.92"/>
    <path class="cls-9" d="M2214.99,1457.38c-3.16,0-6.36-.85-9.24-2.64-8.24-5.11-10.78-15.94-5.67-24.18,18.85-30.4,37.18-61.44,54.47-92.26,4.75-8.46,15.45-11.47,23.91-6.72,8.46,4.75,11.47,15.45,6.72,23.91-17.54,31.26-36.13,62.75-55.25,93.58-3.32,5.36-9.07,8.31-14.95,8.31Z"/>
  </g>
  <path class="cls-4" d="M1987.99,1749.6c-7.31-6.38-18.41-5.61-24.78,1.69-27.75,31.83-56.77,63.42-86.25,93.9,0,0,0,0,0,0-30.33,31.36-61.56,62-92.81,91.08-3.14,2.92-6.31,5.83-9.48,8.73l-3.31,3.04c-7.15,6.56-7.62,17.67-1.06,24.82,3.46,3.77,8.2,5.69,12.94,5.69,4.24,0,8.5-1.53,11.87-4.63l3.29-3.02c3.23-2.96,6.46-5.92,9.67-8.91,31.7-29.49,63.37-60.58,94.13-92.38h0c29.9-30.91,59.33-62.95,87.48-95.23,6.38-7.31,5.62-18.41-1.7-24.78Z"/>
  <path class="cls-10" d="M1976.44,1780.4c-4.09,0-8.2-1.42-11.54-4.33-7.31-6.38-8.07-17.47-1.7-24.78,60.88-69.81,118.36-143.78,170.85-219.84,5.51-7.98,16.45-9.99,24.43-4.48,7.98,5.51,9.99,16.45,4.48,24.43-53.25,77.15-111.55,152.17-173.29,222.98-3.47,3.98-8.35,6.02-13.25,6.02Z"/>
  <path class="cls-10" d="M1971.27,1884.53c-4.28,0-8.58-1.56-11.96-4.7-7.1-6.61-7.51-17.72-.9-24.82,98.64-106.05,188.73-221.38,267.77-342.79,5.29-8.13,16.17-10.43,24.3-5.14,8.13,5.29,10.43,16.17,5.14,24.3-80.14,123.09-171.47,240.03-271.48,347.55-3.46,3.72-8.16,5.6-12.86,5.6Z"/>
  <path class="cls-6" d="M1951.74,1999.51c-4.5,0-9-1.72-12.43-5.16-6.85-6.87-6.84-17.99.03-24.84,137.74-137.45,260.06-290.55,363.58-455.05,5.17-8.2,16.01-10.67,24.22-5.51,8.21,5.17,10.68,16.01,5.51,24.22-104.92,166.73-228.9,321.9-368.5,461.21-3.43,3.42-7.92,5.13-12.41,5.13Z"/>
  <path class="cls-6" d="M1985.26,2058.92c-4.54,0-9.08-1.75-12.52-5.24-6.81-6.91-6.72-18.03.19-24.84,149.64-147.31,281.64-312.14,392.34-489.89,5.13-8.23,15.96-10.75,24.19-5.62,8.23,5.13,10.75,15.96,5.62,24.2-112.16,180.1-245.9,347.1-397.51,496.35-3.42,3.37-7.87,5.05-12.32,5.05Z"/>
  <g>
    <path class="cls-4" d="M2090.17,1162.36l1.51-2.9c.85-1.63,1.7-3.25,2.54-4.89,4.43-8.63,1.02-19.22-7.61-23.65-8.62-4.43-19.21-1.02-23.65,7.61-.8,1.56-1.61,3.11-2.42,4.67l-1.55,2.98c-7.2,13.88-13.71,26.18-19.92,37.6,0,0,0,0,0,0-4.23,7.79-8.51,15.56-12.84,23.29,0,.01-.02.02-.02.03-8.97,16.04-18.56,32.66-28.49,49.38-4.95,8.34-2.21,19.12,6.13,24.07,2.81,1.67,5.9,2.47,8.95,2.47,6,0,11.84-3.07,15.12-8.6,10.09-16.99,19.83-33.87,28.96-50.18,0-.01.01-.03.02-.04,4.4-7.86,8.75-15.75,13.05-23.66,0,0,0,0,0,0,6.32-11.62,12.94-24.12,20.24-38.19Z"/>
    <path class="cls-4" d="M2155.44,1140.36c-8.67-4.34-19.23-.83-23.57,7.84-5.89,11.76-11.98,23.65-18.09,35.34,0,0,0,0,0,0-11.57,22.12-23.76,44.49-36.23,66.51-4.78,8.44-1.82,19.16,6.62,23.94,2.74,1.55,5.71,2.29,8.64,2.29,6.12,0,12.07-3.2,15.3-8.91,12.66-22.36,25.05-45.08,36.79-67.55,6.21-11.87,12.39-23.94,18.37-35.89,4.35-8.67.84-19.23-7.84-23.57Z"/>
    <path class="cls-4" d="M2223.94,1149.95c-8.72-4.26-19.23-.64-23.49,8.07-5.97,12.21-11.54,23.39-17.03,34.15,0,0,0,.02-.01.02-10.54,20.69-21.73,41.82-33.25,62.81-4.67,8.5-1.56,19.18,6.95,23.85,2.68,1.47,5.58,2.17,8.44,2.17,6.2,0,12.22-3.29,15.41-9.12,11.69-21.3,23.04-42.74,33.74-63.75,0-.01.01-.02.02-.03,5.58-10.94,11.23-22.29,17.29-34.68,4.26-8.72.65-19.23-8.07-23.5Z"/>
    <path class="cls-4" d="M2280.29,1224.32c6.39-12.73,11.9-23.92,16.86-34.2,4.21-8.74.55-19.24-8.19-23.45-8.73-4.21-19.23-.54-23.45,8.19-4.88,10.11-10.31,21.14-16.62,33.7,0,0,0,0,0,.01-10.12,20.18-20.7,40.54-31.44,60.5-4.59,8.54-1.4,19.19,7.15,23.79,2.65,1.43,5.5,2.1,8.31,2.1,6.25,0,12.31-3.35,15.48-9.25,10.9-20.26,21.63-40.91,31.9-61.39,0,0,0-.01,0-.02Z"/>
    <path class="cls-4" d="M2342.17,1247.83c5.48-11.01,11.13-22.57,16.78-34.37,4.19-8.75.5-19.24-8.25-23.43-8.75-4.2-19.24-.49-23.43,8.25-5.57,11.64-11.14,23.04-16.54,33.89,0,0,0,0,0,.01-9.6,19.27-19.86,39.15-30.48,59.09-4.56,8.56-1.31,19.2,7.24,23.76,2.63,1.4,5.46,2.07,8.24,2.07,6.28,0,12.36-3.38,15.52-9.31,10.77-20.22,21.17-40.39,30.92-59.94,0,0,0-.01,0-.02Z"/>
    <path class="cls-4" d="M2417.7,1243.23c4.2-8.75.51-19.24-8.24-23.44-8.74-4.19-19.23-.51-23.43,8.23-5.56,11.58-11.26,23.24-16.97,34.67-9.56,19.16-19.69,38.8-30.1,58.38-4.56,8.56-1.31,19.2,7.26,23.76,2.63,1.4,5.45,2.06,8.24,2.06,6.28,0,12.36-3.38,15.52-9.32,10.56-19.85,20.83-39.76,30.53-59.19,5.78-11.59,11.57-23.42,17.2-35.15Z"/>
    <path class="cls-4" d="M2455.29,1315.95c6.58-13.08,12.47-24.99,18-36.41,4.23-8.73.57-19.24-8.16-23.46-8.73-4.22-19.23-.57-23.46,8.16-5.44,11.25-11.25,23-17.75,35.92,0,0,0,0,0,.01-9.76,19.38-19.92,38.96-30.22,58.18-4.58,8.55-1.36,19.2,7.19,23.78,2.64,1.41,5.48,2.08,8.28,2.08,6.27,0,12.33-3.36,15.5-9.27,10.44-19.49,20.74-39.33,30.63-58.97,0,0,0-.01,0-.02Z"/>
    <path class="cls-4" d="M2517.58,1298.91c-8.72-4.28-19.23-.68-23.51,8.02-6.94,14.12-13.14,26.52-18.95,37.9-10.08,19.72-20.48,39.43-30.89,58.6-4.63,8.52-1.48,19.19,7.05,23.82,2.66,1.45,5.54,2.13,8.37,2.13,6.23,0,12.26-3.32,15.45-9.18,10.55-19.42,21.08-39.4,31.3-59.38,5.91-11.55,12.19-24.11,19.21-38.4,4.28-8.71.68-19.23-8.02-23.51Z"/>
  </g>
  <path class="cls-6" d="M2148.19,1983.59c-4.18,0-8.38-1.48-11.73-4.5-7.22-6.48-7.81-17.59-1.33-24.8,101.83-113.37,194.69-236.05,276-364.63,5.19-8.2,16.04-10.64,24.23-5.46,8.2,5.18,10.64,16.03,5.46,24.23-82.37,130.23-176.42,254.49-279.56,369.32-3.47,3.86-8.26,5.83-13.07,5.83Z"/>
  <path class="cls-1" d="M2117.93,747.05c24.29-81.33,43.79-165.15,57.97-249.14,0-.02,0-.03.01-.05,2.07-12.3,3.89-23.59,5.54-34.51,1.6-10.53,3.19-21.75,4.88-34.27,1.29-9.61-5.45-18.46-15.06-19.75-9.57-1.29-18.46,5.45-19.75,15.06-1.66,12.33-3.23,23.36-4.8,33.7-1.63,10.73-3.41,21.83-5.45,33.94,0,.01,0,.03,0,.04-13.94,82.57-33.12,164.98-56.99,244.93,0,0,0,0,0,0-3.5,11.72-7.24,23.79-11.43,36.92,0,0,0,.02-.01.03-4.09,12.82-7.92,24.45-11.69,35.55-3.12,9.19,1.79,19.16,10.98,22.28,1.88.64,3.78.94,5.65.94,7.31,0,14.14-4.61,16.63-11.92,3.85-11.31,7.74-23.15,11.9-36.17,0,0,0-.02,0-.03,4.26-13.33,8.07-25.61,11.63-37.54,0,0,0,0,0,0Z"/>
  <path class="cls-8" d="M2014.19,627.76c11.76-46.7,21.92-94.46,30.2-141.94,0,0,0,0,0,0,2.08-11.94,4.01-23.64,5.75-34.8,0,0,0,0,0-.01,1.78-11.43,3.48-23.06,5.06-34.56,1.32-9.61-5.4-18.47-15.01-19.79-9.61-1.32-18.47,5.4-19.79,15.01-1.55,11.29-3.22,22.71-4.97,33.93,0,0,0,0,0,0-1.7,10.95-3.6,22.45-5.64,34.18,0,0,0,0,0,0-8.12,46.63-18.1,93.53-29.65,139.39,0,0,0,0,0,.01-3.5,13.89-7.23,28.02-11.09,41.99,0,0,0,0,0,0-2.76,10-5.6,19.96-8.43,29.6-2.73,9.31,2.6,19.07,11.91,21.8,1.65.48,3.32.71,4.95.71,7.59,0,14.6-4.97,16.84-12.62,2.88-9.82,5.77-19.96,8.58-30.14,0,0,0,0,0,0,3.93-14.23,7.73-28.61,11.29-42.76,0,0,0-.01,0-.02Z"/>
  <path class="cls-8" d="M2065.46,691.27c18.37-66.08,33.52-133.88,45.04-201.54,0,0,0,0,0-.01,2.19-12.85,4.03-24.18,5.62-34.63,1.56-10.25,3.17-21.5,4.91-34.38,1.3-9.61-5.44-18.46-15.06-19.76-9.61-1.31-18.46,5.44-19.76,15.05-1.71,12.68-3.29,23.73-4.82,33.78-1.56,10.25-3.37,21.37-5.52,34.02,0,0,0,0,0,0-11.32,66.48-26.21,133.11-44.26,198.04,0,.02-.01.03-.02.05-3.74,13.45-7.54,26.63-11.32,39.19,0,0,0,0,0,0-3.75,12.49-7.67,25.08-11.65,37.43-2.97,9.23,2.1,19.13,11.34,22.1,1.79.58,3.6.85,5.39.85,7.42,0,14.32-4.74,16.72-12.18,4.05-12.57,8.04-25.39,11.85-38.1,0,0,0,0,0,0,3.84-12.79,7.72-26.21,11.52-39.89,0-.02,0-.04.01-.06Z"/>
  <path class="cls-1" d="M2173.74,788.17s0,0,0-.01c29.22-92.89,52.32-188.78,68.64-285.01,0,0,0,0,0,0,2.24-13.18,4.02-24.15,5.61-34.54,1.57-10.27,3.19-21.49,4.93-34.29,1.31-9.61-5.41-18.47-15.02-19.78-9.63-1.3-18.47,5.41-19.78,15.03-1.72,12.61-3.31,23.65-4.85,33.74-1.56,10.19-3.31,20.99-5.51,33.97,0,0,0,0,0,0-16.06,94.66-38.78,188.98-67.52,280.35,0,0,0,0,0,0-3.67,11.66-7.51,23.51-11.43,35.23,0,0,0,.01,0,.02-4.15,12.42-7.98,23.59-11.7,34.14-3.23,9.15,1.56,19.18,10.71,22.41,1.94.68,3.91,1.01,5.85,1.01,7.24,0,14.01-4.51,16.56-11.72,3.8-10.74,7.69-22.1,11.9-34.72,0,0,0-.01,0-.02,3.98-11.92,7.89-23.96,11.62-35.81Z"/>
  <path class="cls-1" d="M2311.8,486.55s0,0,0,0c2-12.74,3.68-24.04,5.16-34.51,1.35-9.61-5.34-18.49-14.94-19.84-9.6-1.35-18.49,5.34-19.84,14.94-1.45,10.3-3.11,21.41-5.08,33.97,0,0,0,0,0,0-1.74,11.13-3.65,22.64-5.65,34.22-17.8,102.91-43.2,205.25-75.49,304.19,0,0,0,0,0,.01-3.48,10.66-7.21,21.74-11.4,33.9,0,0,0,0,0,0-3.93,11.4-7.87,22.55-11.7,33.12-3.31,9.12,1.4,19.19,10.52,22.5,1.98.72,4,1.06,5.99,1.06,7.18,0,13.92-4.44,16.51-11.58,3.9-10.75,7.9-22.07,11.89-33.65,0,0,0,0,0-.01,4.25-12.34,8.04-23.61,11.58-34.45,0,0,0-.01,0-.02,32.81-100.53,58.62-204.53,76.71-309.1,2.04-11.76,3.97-23.45,5.74-34.77Z"/>
  <path class="cls-1" d="M2368.63,545.85c1.95-10.92,3.92-22.48,6.01-35.33,0,0,0,0,0-.02,1.82-11.17,3.6-22.66,5.43-35.15,1.41-9.6-5.23-18.52-14.83-19.93-9.59-1.4-18.52,5.22-19.93,14.82-1.81,12.3-3.56,23.62-5.35,34.61,0,0,0,0,0,.01-2.06,12.67-4,24.05-5.92,34.79,0,0,0,0,0,0-19.09,106.6-46.2,212.8-80.59,315.65-4.14,12.38-7.84,23.18-11.3,33.04,0,0,0,.02,0,.03-3.46,9.85-7.29,20.45-11.7,32.4-3.36,9.1,1.3,19.2,10.39,22.56,2.01.74,4.06,1.09,6.08,1.09,7.14,0,13.86-4.39,16.48-11.49,4.47-12.12,8.36-22.88,11.88-32.9,0-.01,0-.02.01-.03,3.53-10.02,7.28-21,11.48-33.56,34.93-104.46,62.47-212.32,81.85-320.6,0,0,0,0,0,0Z"/>
  <path class="cls-1" d="M2429.63,577.99c2.19-11.66,4.39-23.9,6.54-36.37,0,0,0,0,0-.01,2.13-12.38,4.13-24.57,5.96-36.24,1.5-9.58-5.06-18.57-14.65-20.06-9.59-1.5-18.57,5.06-20.06,14.65-1.79,11.49-3.77,23.5-5.86,35.7,0,0,0,0,0,0-2.11,12.3-4.28,24.36-6.44,35.84,0,0,0,0,0,0-19.99,106.21-47.66,211.77-82.23,313.76,0,0,0,0,0,0-3.32,9.79-7.01,20.38-11.27,32.39,0,0,0,0,0,0-3.63,10.22-7.46,20.72-11.7,32.1-3.38,9.09,1.24,19.2,10.33,22.59,2.02.75,4.09,1.11,6.12,1.11,7.13,0,13.83-4.37,16.46-11.44,4.3-11.55,8.18-22.2,11.87-32.58,0,0,0,0,0,0,4.33-12.17,8.07-22.92,11.45-32.88,0,0,0,0,0-.01,35.1-103.54,63.19-210.71,83.48-318.54,0,0,0,0,0-.01Z"/>
  <path class="cls-1" d="M2495.93,581.52s0,0,0-.01c2.48-13.45,4.68-25.9,6.72-38.07,1.61-9.57-4.85-18.62-14.41-20.23-9.58-1.6-18.63,4.85-20.23,14.41-2.01,11.98-4.18,24.25-6.63,37.51,0,0,0,0,0,.01-2.38,12.93-4.83,25.65-7.28,37.8-20.14,100.08-46.99,199.73-79.81,296.18,0,0,0,.01,0,.02-3.47,10.18-7.15,20.75-11.27,32.29-3.73,10.46-7.67,21.26-11.71,32.08-3.39,9.09,1.23,19.2,10.32,22.59,2.02.75,4.1,1.11,6.14,1.11,7.12,0,13.83-4.36,16.46-11.43,4.09-10.98,8.09-21.93,11.88-32.56,0,0,0,0,0,0,4.17-11.7,7.91-22.42,11.43-32.76,0,0,0-.01,0-.02,33.31-97.88,60.56-199.01,81-300.57,2.48-12.34,4.97-25.24,7.38-38.35Z"/>
  <path class="cls-1" d="M2544.41,674.24c2.9-13.25,5.75-26.87,8.72-41.62,0-.02.01-.04.01-.06,2.66-13.24,5.3-27,7.86-40.91,1.75-9.54-4.56-18.7-14.1-20.45-9.57-1.75-18.7,4.56-20.45,14.1-2.52,13.71-5.12,27.28-7.75,40.33,0,.02,0,.03,0,.05-2.93,14.55-5.74,27.98-8.6,41.03,0,0,0,0,0,0-19.23,87.8-43.57,175.38-72.34,260.33-3.38,9.99-7.08,20.61-11.28,32.46,0,0,0,0,0,0-3.62,10.21-7.45,20.77-11.73,32.31-3.37,9.1,1.27,19.2,10.37,22.57,2.01.75,4.07,1.1,6.1,1.1,7.14,0,13.85-4.38,16.47-11.47,4.33-11.69,8.22-22.41,11.9-32.77,0,0,0,0,0-.01,4.26-12.01,8-22.78,11.44-32.94,29.19-86.17,53.88-175.02,73.39-264.08,0,0,0,0,0,0Z"/>
  <path class="cls-11" d="M2595.52,745.51c3.54-14.57,7.14-30.06,11-47.36,3.7-16.55,6.88-31.37,9.72-45.32,1.94-9.51-4.19-18.78-13.7-20.72-9.52-1.94-18.78,4.19-20.72,13.7-2.8,13.74-5.94,28.36-9.59,44.69-3.81,17.08-7.36,32.35-10.85,46.7,0,0,0,0,0,0-16.41,67.4-35.95,135.16-58.08,201.39,0,0,0,.01,0,.02-3.96,11.85-7.65,22.65-11.28,33.03,0,.01-.01.03-.02.04-4.19,11.99-8.03,22.74-11.73,32.84-3.33,9.11,1.35,19.2,10.46,22.53,1.99.73,4.03,1.07,6.03,1.07,7.16,0,13.89-4.42,16.5-11.53,3.76-10.27,7.65-21.16,11.9-33.32,0-.01,0-.03.01-.04,3.68-10.53,7.43-21.48,11.44-33.48,0,0,0-.01,0-.02,22.45-67.16,42.26-135.87,58.9-204.22,0,0,0,0,0,0Z"/>
  <path class="cls-11" d="M2653.86,783.64s0-.03,0-.05c4.82-19.05,8.99-36.26,12.77-52.63,2.18-9.45-3.72-18.88-13.17-21.06-9.46-2.17-18.88,3.72-21.06,13.17-3.72,16.14-7.84,33.13-12.61,51.96,0,0,0,0,0,0-4.67,18.49-9.64,37.24-14.76,55.73-10.52,37.98-21.95,75.88-33.97,112.66-3.56,10.9-7.29,22.03-11.4,34.02-3.72,10.87-7.7,22.23-11.83,33.76-3.27,9.13,1.48,19.19,10.61,22.46,1.96.7,3.95,1.03,5.92,1.03,7.21,0,13.97-4.47,16.54-11.65,4.19-11.69,8.22-23.2,12-34.22,4.16-12.15,7.94-23.43,11.56-34.49,12.19-37.28,23.77-75.71,34.43-114.2,5.19-18.75,10.23-37.76,14.97-56.5Z"/>
  <path class="cls-11" d="M2691.05,897.33c6.26-21.33,12.35-43.09,18.1-64.68,2.5-9.37-3.08-19-12.45-21.49-9.37-2.49-19,3.08-21.5,12.45-5.67,21.3-11.69,42.77-17.86,63.82,0,0,0,0,0,0-8.63,29.39-17.93,59.12-27.65,88.36-4,12.05-8.02,23.88-11.96,35.18-3.19,9.16,1.65,19.17,10.81,22.36,1.91.67,3.86.98,5.77.98,7.27,0,14.07-4.54,16.59-11.79,3.99-11.46,8.07-23.45,12.12-35.66,9.84-29.63,19.27-59.76,28.01-89.54,0,0,0,0,0,0Z"/>
  <path class="cls-11" d="M2726.81,946.19c-9.24-2.91-19.12,2.22-22.03,11.47-4.56,14.45-9.28,28.99-14.03,43.21-3.08,9.2,1.89,19.15,11.09,22.23,1.85.62,3.72.91,5.57.91,7.35,0,14.2-4.65,16.66-12,4.81-14.4,9.59-29.13,14.21-43.77,2.92-9.25-2.22-19.12-11.47-22.03Z"/>
  <path class="cls-4" d="M2566.47,1348.84c-8.67-4.35-19.23-.85-23.58,7.82-6.86,13.66-13.84,27.29-20.77,40.52,0,0,0,0,0,.01-10.48,20.03-21.29,40.08-32.12,59.59-4.71,8.48-1.66,19.17,6.82,23.88,2.7,1.5,5.63,2.21,8.51,2.21,6.17,0,12.16-3.26,15.37-9.04,10.98-19.76,21.92-40.07,32.54-60.35,0,0,0-.01.01-.02,7.01-13.41,14.09-27.22,21.04-41.05,4.35-8.67.85-19.23-7.82-23.58Z"/>
  <g>
    <path class="cls-9" d="M2128.69,2108.84c6.78-6.94,6.65-18.06-.29-24.84-6.93-6.78-18.06-6.66-24.84.29-28.36,29.02-58.12,58.14-88.44,86.54-7.08,6.63-7.44,17.75-.81,24.83,3.46,3.69,8.13,5.56,12.82,5.56,4.3,0,8.62-1.57,12-4.75,30.7-28.76,60.83-58.24,89.55-87.63Z"/>
    <path class="cls-9" d="M2502.09,1755.24c9.91-14.62,19.99-29.83,30.82-46.49,5.29-8.13,2.98-19.01-5.16-24.3-8.14-5.29-19.02-2.98-24.3,5.16-10.71,16.47-20.66,31.5-30.45,45.93-55.95,82.56-116.95,163.12-181.31,239.42-56.83,67.39-117.65,133.04-180.76,195.14-6.92,6.8-7,17.92-.2,24.84,3.44,3.49,7.98,5.25,12.52,5.25s8.9-1.68,12.32-5.04c63.89-62.86,125.45-129.32,182.98-197.53,65.14-77.24,126.89-158.78,183.53-242.35Z"/>
    <path class="cls-9" d="M2551.69,1768.08c-8.04-5.45-18.96-3.34-24.4,4.68-85.95,126.79-182.79,247.87-287.82,359.87-6.64,7.08-6.28,18.19.8,24.83,3.39,3.18,7.7,4.75,12.01,4.75,4.68,0,9.36-1.86,12.82-5.55,106.29-113.34,204.29-235.88,291.28-364.19,5.44-8.03,3.34-18.95-4.68-24.39Z"/>
  </g>
  <path class="cls-4" d="M2536.62,1543.66c2.75,1.58,5.75,2.32,8.71,2.32,6.1,0,12.02-3.17,15.26-8.84,11.6-20.27,23.22-41.19,34.54-62.17,7.96-14.76,15.91-29.84,23.65-44.82,4.45-8.62,1.07-19.22-7.55-23.67-8.61-4.45-19.21-1.07-23.66,7.55-7.64,14.8-15.49,29.69-23.35,44.26-11.18,20.73-22.65,41.38-34.1,61.39-4.82,8.42-1.9,19.15,6.52,23.97Z"/>
  <path class="cls-4" d="M2600.12,1529.68c-11.79,21.04-24.33,42.74-37.27,64.48-4.96,8.34-2.22,19.12,6.11,24.08,2.82,1.68,5.91,2.47,8.97,2.47,5.99,0,11.83-3.07,15.11-8.58,13.09-22.01,25.79-43.97,37.72-65.27,0,0,0,0,0-.01,8.82-15.75,17.79-32.16,27.42-50.17,4.57-8.56,1.34-19.2-7.22-23.77-8.55-4.57-19.19-1.34-23.77,7.21-9.51,17.8-18.37,34.02-27.08,49.56,0,0,0,0,0,.01Z"/>
  <path class="cls-7" d="M2627.6,1614.01c-13.97,23.77-28.29,47.38-42.57,70.17-5.15,8.22-2.66,19.06,5.56,24.21,2.9,1.82,6.12,2.68,9.31,2.68,5.85,0,11.57-2.92,14.9-8.24,14.45-23.07,28.95-46.97,43.08-71.02,0,0,0,0,0-.01,11.53-19.62,22.7-39.11,33.19-57.93,4.73-8.47,1.69-19.17-6.79-23.9-8.48-4.73-19.17-1.68-23.89,6.79-10.36,18.59-21.4,37.84-32.79,57.24,0,0,0,0,0,.01Z"/>
  <path class="cls-7" d="M2684.7,1646.78c-14.15,24.08-28.42,47.65-42.42,70.05-16.84,26.94-34.69,54.46-53.04,81.8-5.41,8.05-3.26,18.97,4.79,24.37,3,2.02,6.41,2.98,9.77,2.98,5.66,0,11.21-2.73,14.6-7.77,18.57-27.65,36.62-55.49,53.66-82.76,14.17-22.68,28.62-46.52,42.92-70.88,4.91-8.36,2.12-19.13-6.25-24.04-8.37-4.91-19.13-2.12-24.04,6.25Z"/>
  <path class="cls-7" d="M2719.51,1750.61c-8.22-5.16-19.06-2.67-24.21,5.54-20.05,31.95-41.13,64.18-62.65,95.79-29.67,43.57-60.93,86.98-92.9,129.05,0,.01-.02.02-.02.04-47.25,62.16-97.29,123.03-148.73,180.91h0c-28.55,32.14-58.65,64.56-89.45,96.37,0,0-.02.02-.03.03-32.99,34.06-67.27,67.84-101.87,100.39-7.07,6.65-7.41,17.76-.76,24.83,3.46,3.68,8.12,5.53,12.8,5.53,4.32,0,8.64-1.58,12.03-4.77,35-32.92,69.67-67.09,103.04-101.54,0,0,.02-.02.03-.03,31.15-32.17,61.59-64.96,90.47-97.47,52.02-58.55,102.64-120.12,150.43-182.99,0-.01.02-.02.03-.03,32.34-42.55,63.95-86.46,93.96-130.53,21.77-31.97,43.1-64.57,63.38-96.9,5.15-8.22,2.67-19.06-5.55-24.21Z"/>
  <path class="cls-4" d="M1925.04,2297.73c12.23-10.28,23.3-19.71,33.82-28.84,7.33-6.36,8.11-17.45,1.76-24.78-6.36-7.32-17.45-8.11-24.78-1.76-10.38,9.01-21.31,18.33-33.4,28.49,0,0-.02.01-.03.02-19.22,16.15-39.12,32.42-59.16,48.34-7.59,6.03-8.86,17.08-2.82,24.68,3.47,4.36,8.59,6.64,13.76,6.64,3.83,0,7.68-1.25,10.92-3.81,20.28-16.12,40.44-32.59,59.9-48.94,0,0,.02-.02.03-.02Z"/>
  <path class="cls-4" d="M2002.72,2317.97c11.13-9.66,22.92-20.08,36.03-31.85,7.22-6.48,7.82-17.58,1.34-24.8-6.48-7.22-17.58-7.82-24.8-1.34-12.97,11.64-24.61,21.93-35.59,31.46,0,0-.02.01-.03.02-20.43,17.74-41.92,35.84-63.9,53.82-7.51,6.14-8.61,17.21-2.47,24.72,3.47,4.24,8.52,6.44,13.6,6.44,3.91,0,7.85-1.3,11.11-3.97,22.23-18.19,43.99-36.52,64.68-54.48,0,0,.02-.02.03-.03Z"/>
  <path class="cls-7" d="M2131.91,2289.94c7.07-6.64,7.42-17.76.78-24.83-6.64-7.08-17.76-7.42-24.83-.78-13.67,12.83-27.13,25.25-40.01,36.9-23.15,20.95-46.84,41.7-70.4,61.69-7.4,6.28-8.31,17.36-2.03,24.75,3.47,4.1,8.42,6.2,13.4,6.2,4.01,0,8.05-1.37,11.35-4.17,23.85-20.23,47.82-41.23,71.25-62.43,13.04-11.8,26.66-24.36,40.49-37.34Z"/>
  <path class="cls-7" d="M2195.53,2320.39c17.1-16.33,34.01-32.85,50.27-49.12,6.86-6.86,6.86-17.98,0-24.84-6.86-6.86-17.99-6.86-24.84,0-16.07,16.08-32.79,32.42-49.69,48.56,0,0-.02.02-.03.02-26.47,25.29-53.61,50.28-80.66,74.29-7.26,6.44-7.92,17.54-1.48,24.79,3.47,3.91,8.29,5.91,13.14,5.91,4.15,0,8.31-1.46,11.65-4.43,27.37-24.29,54.83-49.58,81.61-75.16.01,0,.02-.02.03-.03Z"/>
  <path class="cls-7" d="M2703.44,1896.23c-7.99-5.5-18.93-3.48-24.43,4.52-101.12,147.03-215.63,286.27-340.34,413.85-6.78,6.94-6.65,18.06.28,24.84,3.42,3.34,7.85,5,12.28,5s9.12-1.77,12.56-5.29c126.11-129.01,241.9-269.82,344.16-418.5,5.5-7.99,3.47-18.93-4.52-24.43Z"/>
  <path class="cls-1" d="M1261.23,266.29c-9.61-1.2-18.4,5.63-19.6,15.25-1.4,11.23-2.99,22.58-4.73,33.75,0,0,0,0,0,0-1.71,11.01-3.64,22.3-5.74,33.55,0,0,0,0,0,0-3.54,19.01-7.61,38.15-12.11,56.88-5.75,23.94-12.31,47.84-19.51,71.06,0,0,0,0,0,0-7.18,23.15-15.26,46.47-24.01,69.31-3.47,9.06,1.06,19.22,10.12,22.69,2.07.79,4.19,1.17,6.28,1.17,7.07,0,13.73-4.29,16.41-11.29,9.02-23.54,17.35-47.59,24.76-71.46,0,0,0,0,0,0,7.43-23.94,14.2-48.59,20.12-73.27,4.64-19.32,8.84-39.05,12.49-58.65,0,0,0,0,0,0,2.16-11.59,4.15-23.22,5.91-34.58,0,0,0,0,0,0,1.79-11.52,3.43-23.22,4.87-34.8,1.2-9.63-5.63-18.4-15.25-19.6Z"/>
  <path class="cls-1" d="M1140.37,307.66s0-.02,0-.02c1.92-11.8,3.64-23.61,5.11-35.12,1.23-9.62-5.57-18.42-15.2-19.65-9.61-1.22-18.42,5.58-19.65,15.2-1.42,11.11-3.08,22.52-4.94,33.93,0,0,0,.01,0,.02-1.82,11.17-3.87,22.56-6.11,33.87-16.46,83.08-43.47,163.85-80.26,240.08,0,0,0,0,0,.01-8.71,18.04-18.07,36.04-27.84,53.5,0,0,0,0,0,.01-9.66,17.27-19.99,34.51-30.7,51.25-5.23,8.17-2.84,19.03,5.33,24.26,2.93,1.88,6.21,2.77,9.45,2.77,5.79,0,11.46-2.86,14.81-8.1,11.08-17.32,21.77-35.16,31.77-53.04,0,0,0,0,0-.01,10.1-18.07,19.8-36.7,28.81-55.36,0,0,0-.01,0-.02,38.09-78.91,66.04-162.52,83.08-248.52,2.32-11.7,4.45-23.49,6.33-35.06Z"/>
  <path class="cls-1" d="M1200.35,346.63c2.15-11.35,4.17-23.04,6.01-34.75,1.82-11.63,3.47-23.37,4.9-34.91,1.19-9.63-5.64-18.4-15.27-19.59-9.65-1.21-18.4,5.64-19.59,15.27-1.39,11.16-2.98,22.53-4.75,33.8-1.78,11.34-3.73,22.65-5.81,33.64,0,0,0,0,0,0-10.46,55.16-25.42,109.92-44.47,162.75,0,0,0,0,0,.01-7.62,21.13-16,42.24-24.9,62.76,0,0,0,0,0,0-8.85,20.38-18.43,40.7-28.48,60.39-4.41,8.64-.98,19.22,7.65,23.63,2.56,1.31,5.29,1.93,7.97,1.93,6.39,0,12.55-3.5,15.66-9.58,10.38-20.34,20.28-41.32,29.42-62.38,0,0,0,0,0,0,9.2-21.2,17.86-43.01,25.73-64.83,0,0,0-.01,0-.02,19.68-54.57,35.13-111.13,45.93-168.12,0,0,0,0,0,0Z"/>
  <path class="cls-8" d="M586.21,553.18c3.28,2.71,7.24,4.03,11.19,4.03,5.05,0,10.07-2.17,13.54-6.37,25.81-31.2,48.81-65.03,68.36-100.56,4.68-8.5,1.58-19.18-6.92-23.86-8.5-4.68-19.18-1.58-23.86,6.92-18.49,33.6-40.24,65.6-64.65,95.1-6.18,7.47-5.14,18.55,2.34,24.73Z"/>
  <path class="cls-8" d="M604.11,654.55s0,0,0,0c26.18-24.96,50.76-52.3,73.07-81.26,0,0,0,0,0,0,.03-.04.06-.08.09-.11.03-.04.06-.08.09-.12,17.08-22.2,33-45.61,47.31-69.59,17.64-29.57,33.25-60.68,46.39-92.47,0,0,0,0,0-.01,7.59-18.37,14.47-37.22,20.45-56.05,2.94-9.25-2.18-19.12-11.43-22.06-9.25-2.94-19.12,2.18-22.06,11.43-5.68,17.89-12.22,35.8-19.43,53.26,0,0,0,0,0,0-12.34,29.85-26.97,59.06-43.49,86.87-17.19,20.75-32.81,43.72-46.46,68.33-21.03,27.21-44.16,52.9-68.77,76.37,0,0,0,0,0,0-14.55,13.87-30.1,27.4-46.23,40.22-7.59,6.04-8.86,17.09-2.82,24.68,3.47,4.36,8.59,6.64,13.76,6.64,3.83,0,7.69-1.25,10.92-3.81,16.95-13.47,33.31-27.7,48.61-42.29,0,0,0,0,0,0Z"/>
  <path class="cls-8" d="M672.56,679.24c76.47-79.23,134.19-171.59,171.56-274.52,5.44-14.98,10.56-30.63,15.21-46.51,4.27-14.56,8.05-28.95,11.25-42.75,2.19-9.45-3.7-18.89-13.15-21.08-9.43-2.18-18.89,3.7-21.08,13.15-3.05,13.15-6.66,26.88-10.74,40.81-4.44,15.17-9.33,30.1-14.51,44.39-35.68,98.26-90.8,186.45-163.82,262.11-9.57,9.92-19.64,19.78-29.94,29.31,0,0,0,0-.01.01-10.55,9.77-21.13,19.05-31.44,27.58-7.47,6.18-8.52,17.25-2.34,24.73,3.47,4.2,8.49,6.37,13.54,6.37,3.94,0,7.91-1.32,11.19-4.03,10.81-8.95,21.89-18.66,32.92-28.87,0,0,0-.01.02-.02,10.77-9.98,21.32-20.3,31.34-30.69Z"/>
  <path class="cls-8" d="M924.37,370.48s0-.02,0-.03c3.68-12.93,7.11-26.25,10.21-39.58,0,0,0-.02,0-.03,2.86-12.31,5.53-25.23,7.95-38.41,1.75-9.54-4.56-18.7-14.11-20.45-9.55-1.76-18.7,4.56-20.45,14.11-2.32,12.65-4.88,25.03-7.62,36.81,0,0,0,.01,0,.02-2.97,12.78-6.26,25.54-9.78,37.93,0,0,0,.01,0,.02-31.37,110.29-85,210.95-159.42,299.2-9.81,11.63-19.93,22.98-30.08,33.75-10.45,11.08-21.18,21.85-31.91,32.03-7.04,6.68-7.33,17.79-.65,24.83,3.45,3.64,8.09,5.48,12.75,5.48,4.34,0,8.69-1.6,12.09-4.82,11.2-10.62,22.4-21.87,33.29-33.41,10.6-11.24,21.16-23.08,31.38-35.2,77.64-92.07,133.61-197.12,166.35-312.23Z"/>
  <path class="cls-1" d="M997.06,352.6c2.94-12.25,5.66-24.67,8.07-36.92,0,0,0,0,0,0,2.54-12.94,4.65-24.89,6.45-36.53,1.48-9.59-5.09-18.56-14.68-20.04-9.6-1.48-18.56,5.09-20.04,14.68-1.72,11.16-3.75,22.65-6.2,35.11,0,0,0,0,0,0-2.32,11.77-4.92,23.71-7.76,35.49,0,0,0,.01,0,.02-26.62,110.7-74.06,213.79-141.01,306.4,0,0,0,0,0,.01-9.56,13.23-19.64,26.38-29.95,39.08,0,0,0,0-.01.01-10.64,13.11-21.34,25.59-31.8,37.1-6.52,7.18-5.99,18.29,1.18,24.81,3.37,3.06,7.59,4.57,11.81,4.57,4.78,0,9.54-1.94,13-5.75,10.89-11.99,22.02-24.96,33.07-38.57,0,0,0,0,.01-.01,10.73-13.21,21.21-26.88,31.15-40.64,0,0,.01-.02.02-.03,69.64-96.35,119-203.59,146.69-318.76,0,0,0-.02,0-.03Z"/>
  <path class="cls-1" d="M1066.46,344.25c2.68-12.5,4.96-24.17,6.97-35.68,1.97-11.26,3.78-22.9,5.52-35.59,1.32-9.61-5.4-18.47-15.01-19.79-9.62-1.33-18.47,5.4-19.79,15.01-1.68,12.25-3.42,23.47-5.32,34.3-1.94,11.07-4.14,22.32-6.72,34.38,0,0,0,0,0,0-21.74,101.6-60.01,198.27-113.73,287.31-9.14,15.15-19,30.46-29.31,45.51-10,14.6-20.62,29.2-31.58,43.4-5.93,7.68-4.51,18.71,3.17,24.64,3.2,2.47,6.97,3.66,10.72,3.66,5.26,0,10.46-2.35,13.92-6.83,11.36-14.72,22.38-29.86,32.76-45.01,10.69-15.61,20.92-31.49,30.4-47.21,55.75-92.39,95.45-192.68,118.01-298.1,0,0,0,0,0,0Z"/>
  <path class="cls-4" d="M1803.66,1245.49c-6.31,0-12.42-3.38-15.57-9.32-4.51-8.53-1.39-19.05,7.1-23.63.08-.04.33-.17.41-.21,8.56-4.45,19.19-1.2,23.7,7.33,4.51,8.53,1.39,19.05-7.1,23.63-.08.04-.33.17-.41.21-2.6,1.35-5.39,1.99-8.14,1.99Z"/>
  <g>
    <path class="cls-7" d="M1939.33,1969.51c-18.73,18.69-38.4,37.7-58.45,56.5-.01,0-.02.02-.03.03-25.43,23.83-51.25,47.11-76.76,69.19,0,0-.02.01-.03.02-16.73,14.48-34.47,29.41-52.71,44.37-10.31,8.46-21.1,17.15-32.06,25.86-16.8,13.34-33.93,26.6-50.94,39.42,0,0-.01,0-.02.01-4.95,3.73-9.91,7.45-14.89,11.15,0,0,0,0,0,0-164.26,122.05-342.7,224.35-530.34,304.07-48.76,20.72-98.73,40.14-148.51,57.73,0,0,0,0,0,0-68.2,24.1-138.41,45.58-208.68,63.87-9.39,2.44-15.02,12.03-12.58,21.42,2.06,7.9,9.18,13.15,16.99,13.15,1.46,0,2.95-.19,4.43-.57,71.24-18.53,142.41-40.32,211.54-64.74,0,0,0,0,0,0,50.46-17.83,101.11-37.52,150.55-58.52,190.2-80.8,371.06-184.5,537.55-308.2,0,0,0,0,0,0,5.04-3.75,10.07-7.51,15.08-11.3,0,0,.02-.01.02-.02,17.23-13,34.6-26.44,51.63-39.95,11.1-8.81,22.04-17.63,32.49-26.2,18.49-15.16,36.46-30.29,53.43-44.97,0,0,.02-.02.03-.03,25.86-22.38,52.03-45.97,77.8-70.11.01-.01.02-.02.03-.03,20.32-19.05,40.25-38.31,59.24-57.26,6.87-6.85,6.88-17.97.03-24.84-6.85-6.87-17.97-6.88-24.84-.03Z"/>
    <path class="cls-7" d="M1983.24,1854.1c-7.1-6.61-18.21-6.21-24.83.9-33.66,36.19-68.91,71.92-104.78,106.19,0,0-.02.02-.03.03-12.28,11.73-24.91,23.55-38.62,36.11,0,0-.02.02-.03.03-23.73,21.74-47.97,43.14-72.06,63.59,0,0,0,0,0,0-12.24,10.39-25.23,21.19-38.61,32.1-7.52,6.13-8.64,17.19-2.51,24.71,3.47,4.26,8.52,6.46,13.62,6.46,3.9,0,7.83-1.3,11.09-3.95,13.56-11.06,26.73-22.01,39.14-32.54,0,0,0,0,0,0,24.43-20.75,49.02-42.45,73.08-64.5,13.89-12.73,26.7-24.71,39.16-36.62.01-.01.02-.02.03-.03,36.36-34.75,72.1-70.97,106.23-107.66,6.61-7.1,6.2-18.22-.9-24.82Z"/>
    <path class="cls-7" d="M1898.95,2098.97c-30.33,27.66-61.86,55.1-93.73,81.54-11.5,9.55-21.92,18.07-31.86,26.06,0,0-.02.01-.03.02-17.06,13.72-34.9,27.69-53.02,41.53,0,0,0,0,0,0-7.38,5.64-14.79,11.25-22.24,16.81,0,0,0,0,0,0-162.44,121.33-338.66,223.89-523.78,304.84-89.62,39.19-182.5,73.75-276.05,102.71-9.27,2.87-14.45,12.71-11.58,21.97,2.33,7.54,9.28,12.38,16.77,12.38,1.72,0,3.47-.26,5.2-.79,94.8-29.35,188.92-64.37,279.73-104.09,187.58-82.03,366.14-185.95,530.73-308.88,0,0,0,0,.01,0,7.54-5.63,15.04-11.32,22.52-17.03,0,0,0,0,.01,0,18.36-14.01,36.44-28.17,53.73-42.08,0,0,.02-.02.03-.02,10.08-8.1,20.63-16.74,32.27-26.4,32.28-26.8,64.23-54.59,94.97-82.62,7.17-6.54,7.68-17.65,1.14-24.81-6.54-7.17-17.64-7.68-24.81-1.14Z"/>
    <path class="cls-7" d="M1866.39,2215.18c-9.56,8.08-20.13,16.86-32.3,26.84-4.5,3.68-9,7.37-13.53,11.02-.01,0-.02.02-.03.03-13.39,10.83-27.57,22.06-42.14,33.38-215.42,167.33-453.53,300.73-707.7,396.48-9.08,3.42-13.67,13.55-10.24,22.63,2.65,7.04,9.34,11.38,16.44,11.38,2.06,0,4.15-.37,6.19-1.13,257.47-96.99,498.65-232.12,716.86-401.61,0,0,0,0,0,0,14.75-11.46,29.11-22.83,42.67-33.8.01-.01.03-.02.04-.03,4.58-3.71,9.15-7.44,13.7-11.17,12.31-10.09,23.01-18.98,32.71-27.18,7.41-6.26,8.34-17.34,2.08-24.75-6.26-7.41-17.35-8.34-24.75-2.08Z"/>
    <path class="cls-7" d="M956.01,2551.81c9.16-3.2,13.99-13.22,10.79-22.37-3.2-9.16-13.21-13.99-22.37-10.79-37.09,12.96-74.57,25.09-111.39,36.05-57.5,17.12-116.64,32.4-175.77,45.42-9.47,2.08-15.46,11.46-13.38,20.93,1.81,8.2,9.07,13.79,17.14,13.79,1.25,0,2.52-.13,3.79-.41,59.96-13.2,119.92-28.69,178.24-46.05,37.34-11.12,75.34-23.42,112.95-36.56Z"/>
    <path class="cls-7" d="M1611.48,2485.01c-72.18,57.19-152.14,102.98-237.66,136.1-9.05,3.5-13.54,13.67-10.04,22.72,2.7,6.96,9.34,11.23,16.38,11.23,2.11,0,4.25-.38,6.34-1.19,88.82-34.39,171.85-81.94,246.79-141.32,7.6-6.03,8.88-17.07,2.86-24.68-6.02-7.6-17.07-8.88-24.68-2.86Z"/>
  </g>
  <g>
    <path class="cls-4" d="M1782.56,1509.73c21.77-26.5,43.19-53.86,63.67-81.35,15.87-21.31,31.66-43.34,46.91-65.5,5.5-7.99,3.48-18.93-4.51-24.43-7.98-5.5-18.93-3.49-24.43,4.51-15.01,21.8-30.54,43.48-46.15,64.44,0,0,0,0,0,0-20.14,27.04-41.22,53.96-62.64,80.03-6.16,7.49-5.07,18.56,2.42,24.72,3.27,2.69,7.22,3.99,11.14,3.99,5.07,0,10.11-2.19,13.58-6.41Z"/>
    <path class="cls-4" d="M1794.28,1590.4c.06,0,.13-.01.19-.02.55-.06,1.09-.15,1.64-.26.11-.02.21-.05.32-.07.18-.04.36-.08.55-.12.18-.05.35-.11.53-.17.29-.08.58-.17.86-.27.3-.11.6-.22.89-.34.26-.11.53-.22.79-.34.31-.15.62-.31.92-.48.23-.12.45-.24.68-.37.35-.21.68-.44,1.01-.67.16-.12.33-.22.49-.34.99-.75,1.89-1.6,2.7-2.53.03-.03.06-.06.08-.09l1.56-1.83s.02-.02.03-.04c18.46-21.65,36.59-43.74,53.89-65.68,0,0,0,0,0,0,3.8-4.82,7.56-9.66,11.33-14.51,12.05-15.54,23.92-31.25,35.28-46.72,0,0,0,0,0-.01,5.5-7.49,10.96-15.01,16.37-22.57,5.65-7.89,3.83-18.86-4.06-24.51-7.89-5.64-18.86-3.83-24.51,4.06-5.33,7.44-10.7,14.85-16.11,22.22,0,0,0,0,0,.01-11.18,15.22-22.86,30.69-34.72,45.98-3.7,4.77-7.41,9.54-11.15,14.28,0,0,0,0,0,0-15.49,19.64-31.66,39.4-48.13,58.86-.05.02-.1.04-.15.06-.27.11-.54.23-.81.35-.27.12-.54.23-.79.36-.19.09-.36.2-.55.31-.32.18-.64.35-.95.54-.13.08-.25.18-.38.27-.34.23-.68.45-1,.7-.2.16-.39.33-.58.5-.23.2-.47.38-.69.59-.35.33-.67.68-.99,1.03-.05.06-.11.11-.16.17-.34.39-.66.8-.97,1.22-.03.04-.06.07-.08.11-.25.35-.48.71-.7,1.08-.08.12-.16.24-.23.36-.16.28-.31.58-.45.87-.12.23-.24.46-.35.69-.1.23-.19.46-.28.7-.13.32-.26.63-.37.96-.02.05-.04.1-.06.15-.05.16-.09.33-.13.49-.1.35-.2.69-.28,1.05-.05.24-.09.47-.14.71-.06.33-.12.65-.16.98-.03.27-.05.54-.08.82-.02.29-.05.58-.06.88,0,.31,0,.62,0,.93,0,.26.01.51.03.77.02.35.07.7.11,1.05.03.22.05.44.09.65.07.39.15.77.24,1.15.03.14.05.29.09.43l.08.31s.01.04.02.06l.59,2.16s.03.09.04.13c.06.23.14.45.2.67.09.29.18.58.29.86.08.22.17.44.26.65.12.29.24.57.37.84.1.2.2.4.3.6.15.29.32.58.49.86.1.17.21.34.31.51.22.33.45.65.68.97.08.11.16.23.25.33.34.43.7.85,1.08,1.25.03.04.07.07.11.1.35.36.71.7,1.09,1.03.04.04.08.08.12.12.09.08.19.14.28.22.25.2.5.4.75.59.18.13.36.26.54.38.22.15.44.29.67.43.22.13.44.26.66.39.2.11.4.21.6.31.25.12.49.25.74.36.19.09.39.16.59.24.26.1.51.21.77.3.23.08.46.14.68.21.23.07.47.15.7.21.33.08.66.15.99.22.14.03.28.07.43.09.97.17,1.97.26,2.97.26.58,0,1.16-.04,1.75-.1Z"/>
    <path class="cls-4" d="M1809.1,1671.58c4.83,0,9.63-1.98,13.1-5.86,10.8-12.09,21.8-24.66,32.68-37.38,12.97-15.15,25.81-30.56,38.18-45.8,0,0,.01-.01.02-.02,3.97-4.9,7.93-9.82,11.87-14.75,0,0,.01-.01.02-.02,15.81-19.81,31.18-39.7,45.67-59.12,5.8-7.77,4.2-18.78-3.57-24.58-7.77-5.8-18.78-4.2-24.58,3.57-14.26,19.11-29.39,38.7-44.97,58.22,0,0,0,.01-.01.02-3.88,4.86-7.78,9.7-11.69,14.53,0,0,0,.01-.01.02-12.18,15-24.83,30.17-37.59,45.1-10.72,12.53-21.55,24.91-32.18,36.81-6.46,7.23-5.84,18.34,1.39,24.8,3.35,2.99,7.53,4.47,11.7,4.47Z"/>
    <path class="cls-4" d="M1943.44,1568.58c-20.55,26.28-42.1,52.64-64.08,78.36,0,0,0,.01-.01.02-24.23,28.35-49.48,56.51-75.06,83.68-6.65,7.06-6.31,18.18.75,24.83,3.39,3.19,7.72,4.77,12.04,4.77,4.67,0,9.34-1.85,12.79-5.53,25.96-27.58,51.6-56.16,76.19-84.94,0,0,.01-.01.02-.02,22.3-26.1,44.18-52.87,65.04-79.54,5.97-7.64,4.63-18.68-3.02-24.66-7.64-5.97-18.68-4.63-24.66,3.02Z"/>
    <path class="cls-4" d="M1982.21,1653.87c-7.49-6.17-18.55-5.1-24.72,2.39-23.68,28.76-48.44,57.42-73.59,85.21-26.75,29.55-54.39,58.61-82.16,86.38-6.86,6.86-6.86,17.98,0,24.84,3.43,3.43,7.92,5.14,12.42,5.14s8.99-1.72,12.42-5.15c28.18-28.18,56.22-57.67,83.36-87.65,25.52-28.19,50.64-57.27,74.66-86.45,6.17-7.49,5.09-18.56-2.4-24.72Z"/>
  </g>
  <path class="cls-4" d="M1803.66,1245.72c-5.45,0-10.82-2.53-14.25-7.28-.04-.06-.2-.28-.25-.34-5.58-7.94-3.67-18.89,4.27-24.47,7.86-5.52,18.69-3.7,24.31,4.06.05.07.11.14.14.18,5.68,7.86,3.91,18.84-3.96,24.52-3.11,2.25-6.7,3.33-10.27,3.33Z"/>
  <g>
    <path class="cls-9" d="M1598.84,1814.69c-8.42-4.83-19.15-1.9-23.97,6.51-11.7,20.42-24.49,40.9-38.02,60.87,0,0,0,0,0,0-4.47,6.59-9.11,13.25-13.8,19.81-9.08,12.7-18.45,25.15-27.85,37.03-90.37,114.16-207.63,207.42-339.12,269.71l-205.53,97.36c-8.77,4.15-12.51,14.63-8.35,23.39,3,6.34,9.31,10.05,15.89,10.05,2.52,0,5.08-.54,7.51-1.69l205.53-97.37c136.34-64.58,257.92-161.29,351.62-279.66,9.75-12.32,19.47-25.23,28.88-38.39,4.86-6.8,9.68-13.71,14.31-20.54,0,0,.01-.02.02-.03,14.02-20.69,27.28-41.92,39.41-63.1,4.82-8.42,1.91-19.15-6.51-23.97Z"/>
    <path class="cls-9" d="M1467.47,1909.72c6.33-7.35,5.51-18.44-1.84-24.77-7.35-6.34-18.44-5.51-24.77,1.84-95.06,110.29-216.11,198.58-350.08,255.33l-209.42,88.71c-8.93,3.78-13.11,14.09-9.32,23.02,2.84,6.7,9.34,10.72,16.18,10.72,2.29,0,4.61-.45,6.84-1.4l209.42-88.71c138.91-58.84,264.42-150.38,362.98-264.74Z"/>
    <path class="cls-9" d="M1473.27,1875.61c3.21,2.51,7.02,3.72,10.79,3.72,5.22,0,10.39-2.32,13.86-6.76,5.16-6.62,10.26-13.32,15.15-19.93,14.86-20.07,29-40.74,42.03-61.42,5.17-8.21,2.7-19.05-5.5-24.22-8.21-5.17-19.05-2.7-24.22,5.5-12.56,19.94-26.2,39.87-40.53,59.24-4.71,6.37-9.63,12.83-14.61,19.22-5.97,7.65-4.61,18.69,3.04,24.65Z"/>
  </g>
  <path class="cls-5" d="M1807.83,584.01c-1.42,0-2.86-.17-4.29-.53-9.41-2.36-15.12-11.91-12.76-21.32,7.65-30.44,14.52-61.34,20.44-91.86,1.84-9.53,11.06-15.76,20.59-13.9,9.52,1.85,15.75,11.06,13.9,20.59-6.04,31.14-13.05,62.68-20.86,93.74-2,7.97-9.16,13.29-17.02,13.29Z"/>
  <path class="cls-5" d="M1853.62,666.53c-1.63,0-3.29-.23-4.94-.71-9.31-2.72-14.65-12.48-11.93-21.79,8.54-29.21,16.43-59.05,23.46-88.69,2.24-9.44,11.7-15.27,21.14-13.04,9.44,2.24,15.27,11.71,13.04,21.14-7.17,30.22-15.22,60.65-23.93,90.44-2.24,7.67-9.25,12.64-16.85,12.64Z"/>
  <path class="cls-5" d="M1931,616.58c-9.34-2.55-19.01,2.98-21.56,12.34-6.65,24.47-14.02,49.44-21.88,74.22,0,0,0,0,0,0-3.47,10.92-6.71,20.87-9.92,30.4-3.09,9.2,1.85,19.16,11.05,22.25,1.86.63,3.74.92,5.6.92,7.33,0,14.18-4.63,16.64-11.97,3.27-9.72,6.58-19.86,10.11-30.97,0,0,0,0,0,0,8.02-25.25,15.52-50.69,22.3-75.63,2.54-9.36-2.98-19.01-12.34-21.56Z"/>
  <path class="cls-5" d="M1928.82,854.96c-2.1,0-4.23-.38-6.3-1.18-9.05-3.48-13.57-13.65-10.09-22.7,17.34-45.08,33.15-91.34,46.99-137.48,2.78-9.29,12.58-14.57,21.87-11.78,9.29,2.78,14.57,12.58,11.78,21.87-14.09,46.99-30.19,94.09-47.85,140-2.68,6.98-9.34,11.26-16.4,11.26Z"/>
  <path class="cls-5" d="M2032.63,739.67c-9.25-2.97-19.13,2.1-22.11,11.33-3.44,10.69-7.03,21.5-10.65,32.11,0,0,0,0,0,0-17.75,52.05-37.87,103.86-59.79,153.99-3.89,8.89.17,19.24,9.05,23.13,2.29,1,4.68,1.48,7.03,1.48,6.77,0,13.22-3.94,16.1-10.53,22.31-51.02,42.78-103.75,60.85-156.71,0,0,0,0,0-.01,3.68-10.8,7.33-21.8,10.84-32.68,2.98-9.23-2.1-19.13-11.33-22.11Z"/>
  <g>
    <path class="cls-5" d="M1405.45,313.8s0-.08,0-.11c0-.71-.05-1.41-.14-2.09,0-.03,0-.05,0-.08-.05-.36-.1-.71-.17-1.06-.01-.05-.02-.1-.03-.16-.12-.56-.26-1.11-.43-1.65-.06-.2-.13-.41-.2-.61-.08-.22-.16-.44-.24-.66-.16-.41-.34-.82-.53-1.22-.04-.09-.1-.18-.14-.27-.19-.37-.39-.74-.61-1.1-.06-.1-.12-.21-.19-.31-.53-.84-1.14-1.64-1.82-2.4-.09-.1-.19-.21-.29-.31-.27-.28-.55-.56-.84-.82-.09-.09-.18-.18-.28-.26-.01-.01-.02-.02-.03-.03-.08-.07-.17-.13-.25-.19-.35-.3-.71-.6-1.09-.87-.17-.12-.34-.22-.51-.34-.31-.2-.61-.41-.93-.6-.23-.14-.48-.25-.72-.38-.26-.14-.53-.28-.8-.41-.3-.14-.61-.25-.92-.37-.22-.09-.44-.18-.67-.26-.38-.13-.76-.24-1.15-.34-.17-.05-.33-.1-.5-.14-.48-.11-.97-.2-1.45-.27-.08-.01-.16-.03-.24-.05-.01,0-.02,0-.03,0-.44-.06-.88-.09-1.31-.12-5.6-.35-10.82,2-14.3,6l-1.22,1.39c-.06.07-.11.14-.17.21-.11.13-.21.25-.32.38-.29.36-.57.73-.83,1.11-.06.08-.11.17-.17.26-.24.36-.46.73-.67,1.11-.05.1-.11.19-.16.29-.23.44-.44.89-.64,1.34-.05.11-.09.21-.13.32-.19.46-.36.93-.5,1.4-.01.04-.03.08-.04.12-.03.09-.04.18-.07.27-.1.37-.19.73-.27,1.1-.07.31-.12.62-.17.93-.03.21-.06.42-.09.63-.24,1.98-.16,3.95.25,5.84-.18,1.24-.35,2.49-.53,3.73,0,0,0,0,0,0-26.82,185.23-92.79,358.47-196.09,514.91-5.35,8.1-3.12,18.99,4.98,24.34,2.98,1.97,6.34,2.91,9.66,2.91,5.7,0,11.3-2.77,14.67-7.89,106.17-160.79,173.97-338.85,201.54-529.24,0,0,0,0,0,0,.47-3.25.94-6.5,1.38-9.76,0,0,0,0,0-.01l.24-1.78c.11-.82.15-1.62.14-2.42Z"/>
    <path class="cls-5" d="M1311.74,451.31c2.2-8.49,4.42-17.45,6.59-26.64,0,0,0-.01,0-.02,4.06-17.22,7.74-34.43,10.95-51.18,0,0,0,0,0,0,2.4-12.56,4.71-25.79,6.85-39.33,0,0,0-.01,0-.02,1.86-11.81,3.55-23.5,5-34.77,1.24-9.62-5.55-18.43-15.17-19.67-9.63-1.25-18.43,5.55-19.67,15.17-1.41,10.94-3.05,22.3-4.86,33.78,0,0,0,0,0,.01-2.08,13.17-4.32,26.02-6.65,38.21,0,0,0,0,0,0-3.11,16.26-6.69,32.98-10.64,49.72,0,0,0,0,0,.01-2.11,8.93-4.26,17.64-6.4,25.88,0,0,0,0,0,0-35.98,138.62-96.06,268.62-178.56,386.39-5.57,7.94-3.64,18.9,4.31,24.46,3.07,2.15,6.58,3.18,10.06,3.18,5.54,0,10.98-2.61,14.4-7.49,84.92-121.22,146.75-255.03,183.79-397.71,0,0,0,0,0,0Z"/>
  </g>
</svg>